<?xml version="1.0" encoding="UTF-8"?>
<svg id="Layer_1" data-name="Layer 1" xmlns="http://www.w3.org/2000/svg" viewBox="0 0 31.5 31.5">
  <defs>
    <style>
      .cls-1 {
        fill: #00ef78;
      }
    </style>
  </defs>
  <g id="bLJ8pu">
    <g>
      <path class="cls-1" d="M6.31,18.2h1.76c.63,0,1.6,1.08,1.76,1.68.14.5.14,3.33,0,3.83-.17.6-1.13,1.68-1.76,1.68h-1.76v5.13c0,.11-.27.5-.38.59-.5.43-1.37.36-1.78-.16-.05-.06-.24-.39-.24-.44v-5.13h-1.76c-.63,0-1.6-1.08-1.76-1.68-.14-.5-.14-3.33,0-3.83.17-.6,1.13-1.68,1.76-1.68h1.76V1.09c0-.11.27-.5.38-.59.5-.43,1.37-.36,1.78.16.05.06.24.39.24.44v17.11ZM7.51,20.6H2.72v2.4h4.79v-2.4Z"/>
      <path class="cls-1" d="M17.1,6.22h1.76c.63,0,1.6,1.08,1.76,1.68.14.5.14,3.33,0,3.83-.17.6-1.13,1.68-1.76,1.68h-1.76v17.11c0,.11-.27.5-.38.59-.5.43-1.37.36-1.78-.16-.05-.06-.24-.39-.24-.44V13.41h-1.76c-.63,0-1.6-1.08-1.76-1.68-.14-.5-.14-3.33,0-3.83.17-.6,1.13-1.68,1.76-1.68h1.76V1.09c0-.11.27-.5.38-.59.5-.43,1.37-.36,1.78.16.05.06.24.39.24.44v5.13ZM18.3,8.62h-4.79v2.4h4.79v-2.4Z"/>
      <path class="cls-1" d="M27.88,18.2h1.76c.63,0,1.6,1.08,1.76,1.68.14.5.14,3.33,0,3.83-.17.6-1.13,1.68-1.76,1.68h-1.76v5.13c0,.11-.27.5-.38.59-.5.43-1.37.36-1.78-.16-.05-.06-.24-.39-.24-.44v-5.13h-1.76c-.63,0-1.6-1.08-1.76-1.68-.14-.5-.14-3.33,0-3.83.17-.6,1.13-1.68,1.76-1.68h1.76V1.09c0-.11.27-.5.38-.59.5-.43,1.37-.36,1.78.16.05.06.24.39.24.44v17.11ZM29.08,20.6h-4.79v2.4h4.79v-2.4Z"/>
    </g>
  </g>
</svg>