<?xml version="1.0" encoding="UTF-8"?>
<svg id="Layer_1" data-name="Layer 1" xmlns="http://www.w3.org/2000/svg" viewBox="0 0 31.5 31.5">
  <defs>
    <style>
      .cls-1 {
        fill: #00ef78;
      }
    </style>
  </defs>
  <g id="_2nKA3M" data-name="2nKA3M">
    <g>
      <path class="cls-1" d="M21.07,23.98c.06.02.27.27.29.36.08.44.05,2.36,0,2.85-.16,1.38-1.63,2.14-2.91,1.99.07.74-.03,1.82-.91,2.05-.4.1-2.8.09-3.28.03-1.01-.12-1.09-1.27-1-2.08-1.44.15-2.86-.64-2.99-2.17-.08-.91.07-1.93,0-2.86-.19-2.55-2.59-4.37-3.58-6.67C3.38,9.8,9.38,1.3,17.81,2.91c6.76,1.29,9.86,8.84,7.01,14.88-.56,1.19-1.43,2.25-2.22,3.3.6.05,1.8-.98,2.19-.18.15.3-.03.55-.29.71-.46.28-2.12.81-2.71.99-.46.14-.93.22-1.01-.42-.11-.97.08-2.17.02-3.17.14-.36.47-.57.83-.34.06.04.26.27.26.32v1.2l1.43-1.98c3.29-5.35.84-12.89-5.57-14.22-7.47-1.56-12.79,5.73-10.18,12.65,1,2.65,3.61,4.38,3.75,7.32h3.63v-3.7c-3.43-.87-6.04-4.76-6.23-8.21-.04-.76.12-2.33.53-2.97s1.87-.04,2.44.21c1.82.8,3.06,2.34,4.11,3.97.91-1.73,2.62-3.4,4.51-4.03,1.32-.44,1.78-.52,2.14.91.96,3.75-1.58,8.52-5.1,10.02-.42.18-.88.29-1.3.46v3.34h5.03ZM14.61,16.59c-.13-.5.54-1.68.5-2.03-.02-.17-.6-1.19-.74-1.4-.94-1.47-2.54-2.91-4.3-3.18-1.03,3.48,1.26,7.65,4.5,9.08.05-.17-.11-.43-.19-.59-.29-.57-.96-1.42-1.15-1.96s.12-.98.68-.81c.3.09.42.72.69.89ZM16.95,19.18c3.18-1.58,5.33-5.57,4.35-9.08-3.42.8-5.96,4.78-5.71,8.21,0,.11.08.68.16.68l1.88-3.18c.37-.29.9-.13.92.37.02.44-1.72,2.88-1.6,3.01ZM11.37,25.02v2.11s.19.37.23.42c.22.3.54.47.91.52,2.02.25,4.48-.17,6.55,0,.44,0,1-.39,1.15-.8.02-.06.11-.44.11-.47v-1.69s-.09-.1-.1-.1h-8.86ZM17.34,29.17h-3.05c.03.23-.1.89.14,1,.2.09,2.15.08,2.49.05.67-.06.35-.53.42-1.04Z"/>
      <path class="cls-1" d="M9.14.9c.31.29.69,1.33.98,1.72.1.54-.53.9-.92.53-.34-.32-.69-1.32-1-1.73-.1-.52.54-.88.94-.52Z"/>
      <path class="cls-1" d="M28.62,8.29c.63-.05.82.75.36,1.02-.14.08-1.72.52-1.88.52-.54.01-.76-.69-.35-1,.12-.09,1.67-.52,1.87-.54Z"/>
      <path class="cls-1" d="M5.77,18.41c.52-.07.81.55.47.93-.08.1-1.54.94-1.69.97-.52.14-.95-.44-.56-.88.12-.14,1.61-1,1.77-1.02Z"/>
      <path class="cls-1" d="M21.99.38c.46-.1.81.18.72.65-.02.11-.79,1.44-.9,1.57-.41.52-1.11.22-1.01-.36.03-.16.76-1.46.89-1.64.08-.11.16-.19.3-.22Z"/>
      <path class="cls-1" d="M26.08,17.7c.17-.03.27.01.42.07.18.07,1.44.8,1.55.92.36.4,0,1.06-.52.92-.16-.04-1.58-.86-1.69-.97-.31-.31-.16-.85.25-.93Z"/>
      <path class="cls-1" d="M2.53,9.14c.14-.04.28-.01.42,0,.26.03,1.53.37,1.72.49.44.29.23,1.03-.4.99-.21-.01-1.54-.37-1.74-.47-.43-.21-.41-.89,0-1.01Z"/>
    </g>
  </g>
</svg>