<?xml version="1.0" encoding="UTF-8"?>
<svg id="Layer_1" data-name="Layer 1" xmlns="http://www.w3.org/2000/svg" viewBox="0 0 31.5 31.5">
  <defs>
    <style>
      .cls-1 {
        fill: #00ef78;
      }
    </style>
  </defs>
  <g id="w62rLX">
    <g>
      <path class="cls-1" d="M27.67,27.64v-9.12h1.37c.06,0,.4.18.46.12.01-1.67-.12-3.31-.59-4.91-2.2-7.43-10.29-11.56-17.64-9.03-4.1,1.41-7.44,4.87-8.67,9.03-.47,1.6-.6,3.24-.59,4.91.06.06.4-.12.46-.12h1.37v9.12h-1.43c-.9,0-2.2-1.42-2.22-2.34.11-5.87-.86-11.09,2.55-16.24C9.14-.61,23.59-.1,29.32,9.97c2.79,4.9,1.86,9.86,2,15.27.02.94-1.31,2.4-2.22,2.4h-1.43Z"/>
      <path class="cls-1" d="M6.16,28.96c-.28-.28-.44-.66-.51-1.04v-9.77c.17-.73.79-1.36,1.55-1.44.29-.03,1.18-.04,1.45.01.31.06.63.43.65.74l-.02,11.36c-.11.33-.39.61-.74.65-.76.09-1.82.06-2.38-.51Z"/>
      <path class="cls-1" d="M25.34,17.21c.28.28.44.66.51,1.04v9.77c-.17.73-.79,1.36-1.55,1.44-.29.03-1.18.04-1.45-.01-.31-.06-.63-.43-.65-.74l.02-11.36c.11-.33.39-.61.74-.65.76-.09,1.82-.06,2.38.51Z"/>
    </g>
  </g>
</svg>