<?xml version="1.0" encoding="UTF-8"?>
<svg id="Layer_1" data-name="Layer 1" xmlns="http://www.w3.org/2000/svg" viewBox="0 0 31.5 31.5">
  <defs>
    <style>
      .cls-1 {
        fill: #00ef78;
      }
    </style>
  </defs>
  <g id="x4KL7v">
    <g>
      <path class="cls-1" d="M15.12.35c3.11-.3,5.9,1.86,6.11,5.02.25,3.73-.19,7.73,0,11.48-.76,6.63-10.18,6.58-10.88-.06.19-3.74-.25-7.71,0-11.42.17-2.51,2.23-4.78,4.76-5.02ZM15.36,2.64c-1.36.16-2.54,1.39-2.69,2.75.17,3.63-.28,7.56-.02,11.16.29,3.94,5.99,3.93,6.29,0-.2-3.56.26-7.41,0-10.94-.14-1.86-1.72-3.2-3.58-2.97Z"/>
      <path class="cls-1" d="M16.95,26.18v2.78h1.96c.06,0,.4.14.47.19.81.5.67,1.73-.22,2.06-2.22.09-4.46.05-6.69.02-.92-.3-1.1-1.56-.26-2.08.08-.05.41-.19.47-.19h1.96v-2.78c-4.04-.51-7.44-3.54-8.32-7.54-.2-.9-.3-2.28-.2-3.18.14-1.27,2.11-1.34,2.29.13.14,1.18-.05,1.97.34,3.22,2.16,6.8,11.98,6.76,14.08-.04.37-1.2.2-1.97.32-3.12.15-1.54,2.18-1.48,2.3-.12.12,1.4-.08,2.97-.54,4.29-1.21,3.44-4.37,5.91-7.97,6.37Z"/>
    </g>
  </g>
</svg>