<?xml version="1.0" encoding="UTF-8"?>
<svg id="Layer_1" data-name="Layer 1" xmlns="http://www.w3.org/2000/svg" viewBox="0 0 31.5 31.5">
  <defs>
    <style>
      .cls-1 {
        fill: #00ef78;
      }
    </style>
  </defs>
  <g id="Xx27jF">
    <g>
      <path class="cls-1" d="M15.06,7.87c6.23-.5,10.65,6.12,7.62,11.66-2.68,4.9-9.39,5.56-13,1.27-4.1-4.87-.89-12.43,5.38-12.94ZM15.19,10.07c-4.14.39-6.43,4.96-4.37,8.56s7.68,3.75,9.85.04c2.36-4.05-.81-9.04-5.48-8.6Z"/>
      <path class="cls-1" d="M5.13,14.97c.59.64.26,1.72-.58,1.86-.59.1-2.98.09-3.59,0-1.17-.16-1.23-1.98,0-2.19.63-.11,2.8-.09,3.48-.01.23.02.53.16.68.33Z"/>
      <path class="cls-1" d="M16.52,5.13c-.64.59-1.72.26-1.86-.58-.09-.55-.09-3.04,0-3.58.2-1.21,1.97-1.21,2.18,0,.11.63.09,2.8.01,3.48-.02.23-.16.53-.33.68Z"/>
      <path class="cls-1" d="M26.37,16.53c-.59-.64-.26-1.72.58-1.86.55-.09,3.04-.09,3.59,0,1.21.2,1.21,1.97,0,2.18-.63.11-2.8.09-3.48.01-.23-.02-.53-.16-.68-.33Z"/>
      <path class="cls-1" d="M16.52,26.37c.17.15.3.46.33.68.07.67.09,2.84-.01,3.48-.2,1.21-1.97,1.21-2.18,0-.09-.55-.09-3.04,0-3.58.14-.83,1.23-1.17,1.86-.58Z"/>
      <path class="cls-1" d="M23.58,22.75c.5-.09.72.06,1.09.35.39.32,2.23,2.15,2.39,2.51.43.99-.57,1.9-1.52,1.4-.32-.17-2.5-2.35-2.67-2.66-.34-.64-.03-1.47.71-1.6Z"/>
      <path class="cls-1" d="M25.84,4.37c.98-.2,1.73.78,1.17,1.66-.53.83-1.93,1.76-2.57,2.58-1.03.57-2.09-.42-1.53-1.47.16-.29,2.12-2.25,2.45-2.51.11-.09.34-.23.47-.26Z"/>
      <path class="cls-1" d="M7.4,22.75c1-.17,1.65.73,1.18,1.61-.14.26-2.23,2.36-2.52,2.57-1.02.71-2.26-.39-1.58-1.46.2-.32,2.16-2.27,2.5-2.52.13-.1.25-.17.41-.2Z"/>
      <path class="cls-1" d="M5.13,4.37c.38-.07.66,0,.97.23.39.28,2.11,2.01,2.38,2.39.74,1.04-.27,2.18-1.39,1.64l-2.58-2.57c-.48-.6-.12-1.57.62-1.7Z"/>
    </g>
  </g>
</svg>