<?xml version="1.0" encoding="UTF-8"?>
<svg id="Layer_1" data-name="Layer 1" xmlns="http://www.w3.org/2000/svg" viewBox="0 0 31.5 31.5">
  <defs>
    <style>
      .cls-1 {
        fill: #00ef78;
      }
    </style>
  </defs>
  <g id="SOLnnp">
    <g>
      <path class="cls-1" d="M12.8,3.3c.14-1.56,1.49-3.02,3.08-3.14,2.2-.17,4.61.14,6.83,0,.52,0,.6.75.12.92-2.11.11-4.37-.14-6.46,0-1.42.1-2.48.94-2.59,2.41-.13,1.71.1,3.58,0,5.3.02.1.48.46.61.61.33.4.53.89.61,1.4v5.51c.33.15.64.29,1,.32,1.82.16,4.02-.22,5.79,0,.15.02.52.17.52.34v1.86l2.89-2.14c1.89,0,3.82.02,4.17-2.29-.17-3.54.26-7.34.01-10.84-.1-1.46-1.1-2.36-2.53-2.46-.4-.03-1.19.08-1.51-.01-.36-.1-.38-.84.11-.9.41-.05,1.41-.04,1.83,0,1.47.13,2.73,1.36,3,2.79-.03,3.64.31,7.58.08,11.2-.17,2.73-2.34,3.73-4.83,3.45l-3.46,2.64c-.26.14-.73-.07-.73-.36v-2.29h-5.58c-.17,0-.58-.19-.76-.24v2.32h4.36c.05,0,.59.19.68.23.69.33,1.12,1.06,1.18,1.81.04.54.07,1.94,0,2.44s-.81.52-.96.05c-.19-1.12.57-3.4-1.14-3.55-1.95-.17-4.17.13-6.15,0-.49.09-.86.43-.98.91l-.03,6.31c.11.68.58,1.01,1.25,1.07,1.07.09,2.26-.08,3.34.01.44.12.31.62.38.96.33-.18.92-.85,1.25-.95.66-.19,1.44.23,1.92-.64.32-.59-.14-1.91.66-1.87.62.03.51.95.47,1.42-.12,1.42-1.34,2.13-2.68,2.01l-1.94,1.48c-.17.13-.69-.11-.69-.26v-1.25h-3.26c-.68,0-1.68-1.19-1.68-1.86v-5.33l-2.37,1.8c-.24.13-.67-.1-.67-.37v-1.74H3.45c-.53,0-1.46-.6-1.8-1.01-1.23-1.48-.45-4.57-.67-6.4.03-.57.88-.71.97-.12.11,1.55-.13,3.28,0,4.81.08.86.75,1.63,1.62,1.73,1.5.17,3.32-.16,4.81,0,.17.02.52.14.52.34v1.31l2.12-1.6c.05-.76,1.07-1.75,1.81-1.75h1.19v-8.93s-.21-.46-.25-.54c-.37-.6-.98-.84-1.67-.89-2.76-.21-5.86.1-8.65.07-.84.17-1.4.83-1.49,1.68-.04.39.12,1.3-.19,1.51-.37.25-.74,0-.79-.42-.16-1.4.3-2.92,1.67-3.52.1-.04.62-.23.68-.23h9.39s.05.08.09.06V3.3Z"/>
      <path class="cls-1" d="M23.47,7.29c.2-.03.38.05.58.06,1.18.08,2.69-.45,2.84,1.24.09,1.07.1,3.27,0,4.33-.06.63-.5,1.1-1.13,1.19-1.59-.17-3.75.27-5.26-.1-.2-.05-.69-.3-.79-.31-.09,0-.18.13-.29.18-.24.1-2.27.1-2.63.06-.3-.04-.53-.27-.52-.58.12-1.73-.15-3.66,0-5.37.03-.36.15-.54.52-.58s2.32-.05,2.59.03c.09.03.17.16.24.13.09-.04,1.16-1.24,1.28-1.41.56-.75.47-1.03.63-1.87s1.2-1.07,1.72-.41c.67.84.65,2.47.21,3.41ZM25.83,8.34c-.07-.07-.22-.07-.32-.08-.94-.08-1.98.06-2.93,0-.8-.15.16-1.6.21-2.1.05-.42,0-.93-.14-1.33-.03-.08-.08-.28-.17-.29-.04,1.92-1.72,3.06-2.79,4.43v3.54c.42.29.83.56,1.36.62l4.72-.03c.13-.07.11-.18.13-.3.1-1.02.09-3.12,0-4.15,0-.09-.01-.25-.08-.32ZM18.78,8.39h-1.52v4.57h1.52v-4.57Z"/>
      <path class="cls-1" d="M4.85,14.97c-.45-.1-.63-.91.12-.98.57-.05,1.22.04,1.8,0,.06-.06.18-1.5.27-1.77.11-.31.54-.38.78-.18.38.31-.12,1.5-.08,1.95h1.04c.18-.49.05-2.08.76-2.08.86,0,.2,1.62.21,2.08h1.49c.13,0,.29.3.31.42.11.84-1.51.48-1.98.55l-.12,1.04h1.74c.31,0,.59.72.08.93-.34.14-1.89-.03-1.99.05-.2.47-.05,2.16-.82,2.05s-.18-1.57-.17-2.06h-1.01c-.29.44-.07,2.05-.79,2.07-.92.02-.19-1.58-.28-2.07h-1.43c-.1,0-.3-.24-.32-.35-.21-.96,1.41-.53,1.93-.63l.19-1.03c-.5-.07-1.28.1-1.74,0ZM8.6,14.97h-1.04l-.18,1.04h1.1l.12-1.04Z"/>
      <path class="cls-1" d="M14.92,22.61c.33-.04.52.02.82.12.12.04.22.16.32.17.14.01.27-.14.42-.19,1.42-.45,2.49.76,2.21,2.15-.15.78-.76,1.34-1.39,1.78-.27.18-1.05.7-1.34.62-.57-.15-1.87-1.15-2.18-1.66-.67-1.12-.32-2.83,1.13-2.99ZM14.98,23.58c-.75.12-.66,1.11-.29,1.6.17.22,1.23,1.1,1.46,1.04.28-.08,1.3-.9,1.45-1.17.31-.54.22-1.44-.52-1.48-.6-.04-.48.63-1.03.61-.48-.02-.43-.71-1.08-.6Z"/>
    </g>
  </g>
</svg>