<?xml version="1.0" encoding="UTF-8"?>
<svg id="Layer_1" data-name="Layer 1" xmlns="http://www.w3.org/2000/svg" viewBox="0 0 31.5 31.5">
  <defs>
    <style>
      .cls-1 {
        fill: #00ef78;
      }
    </style>
  </defs>
  <g id="q6SMTo">
    <g>
      <path class="cls-1" d="M23.99.36c6.06-.56,9.48,6.29,5.43,10.85-2.52,2.84-5.64,5.39-8.22,8.22-2.33,2.33-6.75,2.35-9-.09-.88-.96-.11-2.5,1.21-2.23.47.1.83.57,1.22.83,1.44.96,3.27.84,4.59-.25l8.46-8.46c2.51-3.07-.64-7.48-4.38-6-1.62.64-4.02,3.88-5.53,5.13-1.39,1.15-2.99-.28-2.02-1.72,2.49-2.09,4.73-5.95,8.23-6.27Z"/>
      <path class="cls-1" d="M13.27,11.07c1.8-.17,4.02.42,5.28,1.79,1.13,1.23-.3,2.95-1.67,2.04-.24-.16-.45-.43-.72-.61-1.43-.95-3.27-.84-4.59.25l-7.79,7.8c-2.32,2.94.51,7.17,4.12,6.05,1.74-.54,3.65-3.3,5.11-4.52s3.02.31,1.99,1.75c-2.33,2.03-4.26,5.31-7.64,5.54-5.96.41-9.26-6.34-5.3-10.84,2.48-2.81,5.6-5.46,8.26-8.11.83-.58,1.94-1.04,2.96-1.14Z"/>
    </g>
  </g>
</svg>