<?xml version="1.0" encoding="UTF-8"?>
<svg id="Layer_1" data-name="Layer 1" xmlns="http://www.w3.org/2000/svg" viewBox="0 0 31.5 31.5">
  <defs>
    <style>
      .cls-1 {
        fill: #00ef78;
      }
    </style>
  </defs>
  <g id="OaJviC">
    <g>
      <path class="cls-1" d="M3.46.07l18.61-.02c1.86.18,3.39,1.71,3.52,3.58.29,4.07-.22,8.46,0,12.56-.21,1.81-1.65,3.25-3.46,3.46H7.43c-2.08,1.53-3.93,3.39-6.04,4.87-.56.13-1.03-.07-1.24-.6-.1-6.81-.03-13.65-.04-20.47C.34,1.71,1.72.31,3.46.07ZM2.06,21.43l4.2-3.49.44-.23h14.82c1.31-.1,2.02-.81,2.11-2.13.26-3.69-.2-7.68,0-11.4-.08-1.34-.75-2.08-2.11-2.17H4.12c-1.02,0-2.05.88-2.05,1.93v17.49Z"/>
      <path class="cls-1" d="M29.52,28.36V11.78c0-.78-.67-1.62-1.42-1.83-.61-.17-1.43-.01-1.52-.93-.15-1.51,1.64-1.22,2.55-.84,1.19.5,2.18,1.77,2.33,3.06v19.5c-.28.71-.97.87-1.6.48l-4.68-3.71h-13.72c-2.65-.37-3.81-2.53-3.52-5.07.12-1.05,1.66-1.11,1.92-.2.14.48-.01,1.17.11,1.73.15.71.67,1.24,1.35,1.47,4.81.24,9.66.03,14.48.11l.46.21,3.25,2.6Z"/>
      <path class="cls-1" d="M6.7,5.95h12.18c1.12.11,1.12,1.82,0,1.95H6.81c-1.07-.12-1.13-1.69-.11-1.95Z"/>
      <path class="cls-1" d="M6.7,9.87h8.31c.95.13,1.06,1.55.19,1.89-2.8.13-5.64.03-8.45.05-1.02-.19-1.06-1.69-.05-1.94Z"/>
    </g>
  </g>
</svg>