<?xml version="1.0" encoding="UTF-8"?>
<svg id="Layer_1" data-name="Layer 1" xmlns="http://www.w3.org/2000/svg" viewBox="0 0 31.5 31.5">
  <defs>
    <style>
      .cls-1 {
        fill: #00ef78;
      }
    </style>
  </defs>
  <g id="LTq4ZB">
    <g>
      <path class="cls-1" d="M23.87.26l5.6.02c.15.11.26.25.29.44l.02,27.9c0,.28-.13.53-.41.62h-5.39c-.21,0-.39-.13-.44-.33l-.02-28.14c-.01-.24.12-.43.35-.5ZM28.69,1.28h-4.04s-.09.08-.09.09v26.79h4.13V1.28Z"/>
      <path class="cls-1" d="M9.16,6.58c.11-.1.29-.13.43-.14,1.64-.15,3.5.12,5.16,0,.24.01.43.19.49.42l.03,21.76c0,.26-.12.49-.35.62h-5.45c-.21,0-.39-.13-.44-.33V6.79c.04-.07.07-.16.13-.21ZM14.18,7.53h-4.07v20.63h4.07V7.53Z"/>
      <path class="cls-1" d="M16.78,12.64c1.62.09,3.49-.17,5.08-.01.27.03.5.09.61.36l.03,15.75c.01.22-.1.4-.3.49l-5.5.03c-.19,0-.36-.21-.41-.38-.09-5.22-.01-10.45-.04-15.68.04-.33.21-.5.53-.56ZM21.4,13.72h-4.07v14.44h4.07v-14.44Z"/>
      <rect class="cls-1" x=".23" y="30.28" width="31.07" height="1.03"/>
      <path class="cls-1" d="M2.15,18.89h5.39c.18,0,.33.09.41.25.08,3.27.08,6.59,0,9.86-.11.21-.25.24-.47.26-1.66.15-3.54-.12-5.22,0-.34-.02-.52-.31-.52-.64.21-2.93-.27-6.22,0-9.11.03-.3.1-.52.41-.62ZM6.96,19.97H2.83v8.19h4.13v-8.19Z"/>
    </g>
  </g>
</svg>