<svg width="18" height="17" viewBox="0 0 18 17" fill="none" xmlns="http://www.w3.org/2000/svg">
<path d="M3.1441 9.00065H0C0.0989218 10.7267 0.708305 12.3562 1.75573 13.7139C2.34482 13.3812 3.00617 13.0959 3.72061 12.8633C3.38066 11.6755 3.18302 10.364 3.1441 9.00065ZM3.1441 7.99942C3.18302 6.63604 3.38066 5.32452 3.72065 4.13669C3.00617 3.90407 2.34485 3.61879 1.75576 3.28605C0.708306 4.64375 0.0989218 6.27329 0 7.99942H3.1441ZM5.51429 2.33341C5.32419 2.68444 5.15254 3.0609 4.99996 3.45856C5.95079 3.68581 6.97963 3.82151 8.04197 3.85398V0C7.10672 0.213897 6.22366 1.02343 5.51429 2.33341ZM9.04317 0V3.85395C10.1054 3.82147 11.1343 3.68574 12.0851 3.45853C11.9325 3.0609 11.7608 2.68441 11.5708 2.33337C10.8614 1.02346 9.97835 0.21393 9.04317 0ZM12.4023 4.41003C11.3506 4.66845 10.2136 4.82157 9.04317 4.85558V7.99938H12.9392C12.9009 6.72728 12.7171 5.50848 12.4023 4.41003ZM4.03287 13.8128C3.45422 14.0013 2.91542 14.2269 2.42849 14.4865C2.44955 14.508 2.47021 14.5297 2.4915 14.551C3.38213 15.4416 4.43469 16.1112 5.58254 16.5334C5.24049 16.1407 4.92229 15.676 4.63384 15.1434C4.4096 14.7293 4.20908 14.2837 4.03287 13.8128ZM13.0522 3.18719C13.6308 2.99873 14.1696 2.77311 14.6565 2.51356C14.6355 2.49207 14.6148 2.47031 14.5935 2.44902C13.7029 1.55839 12.6503 0.888828 11.5025 0.466608C11.8446 0.859325 12.1627 1.324 12.4512 1.85665C12.6754 2.27073 12.876 2.71631 13.0522 3.18719ZM13.941 9.00065C13.9021 10.364 13.7044 11.6755 13.3644 12.8633C14.0789 13.0959 14.7402 13.3812 15.3293 13.714C16.3768 12.3563 16.9861 10.7268 17.085 9.00068H13.941V9.00065ZM13.0522 13.8128C12.876 14.2837 12.6754 14.7292 12.4512 15.1433C12.1627 15.676 11.8445 16.1407 11.5025 16.5334C12.6503 16.1112 13.7029 15.4416 14.5935 14.551C14.6148 14.5297 14.6355 14.5079 14.6565 14.4864C14.1696 14.2269 13.6308 14.0013 13.0522 13.8128ZM4.03287 3.18719C4.20908 2.71631 4.4096 2.27076 4.63387 1.85665C4.92229 1.324 5.24052 0.859325 5.58257 0.466608C4.43473 0.888828 3.38216 1.55839 2.49153 2.44902C2.47024 2.47031 2.44958 2.49207 2.42856 2.51356C2.91546 2.77311 3.45422 2.99873 4.03287 3.18719ZM13.3644 4.13669C13.7044 5.32452 13.902 6.63604 13.9409 7.99942H17.085C16.9861 6.27329 16.3767 4.64375 15.3293 3.28608C14.7402 3.61879 14.0789 3.90407 13.3644 4.13669ZM8.04194 7.99942V4.85561C6.87153 4.8216 5.73446 4.66845 4.68273 4.41006C4.36795 5.50848 4.18409 6.72728 4.1458 7.99945H8.04194V7.99942ZM9.04317 9.00065V12.1444C10.2135 12.1784 11.3506 12.3316 12.4023 12.5899C12.7171 11.4915 12.9009 10.2727 12.9392 9.00062H9.04317V9.00065ZM11.5707 14.6666C11.7608 14.3156 11.9325 13.9391 12.0851 13.5415C11.1342 13.3142 10.1054 13.1785 9.04313 13.1461V17C9.97835 16.7861 10.8614 15.9765 11.5707 14.6666ZM8.04194 17V13.1461C6.97963 13.1785 5.95079 13.3142 4.99992 13.5415C5.15254 13.9391 5.32419 14.3156 5.51429 14.6666C6.22366 15.9766 7.10672 16.7861 8.04194 17ZM8.04194 9.00065H4.1458C4.18412 10.2728 4.36795 11.4916 4.68273 12.59C5.73443 12.3316 6.87149 12.1784 8.04194 12.1444V9.00065Z" fill="#00ed85"/>
</svg>
