<svg xmlns="http://www.w3.org/2000/svg" width="18" height="18" viewBox="0 0 18 18" fill="none">
<path d="M12.7978 17.9967H5.20272C2.33386 17.9967 0 15.6633 0 12.7949V5.20177C0 2.33343 2.33386 0 5.20272 0H12.7978C15.6666 0 18.0005 2.33343 18.0005 5.20177V12.7954C18.0005 15.6637 15.6666 17.9972 12.7978 17.9972V17.9967ZM5.20272 1.81041C3.33259 1.81041 1.81121 3.33151 1.81121 5.2013V12.7949C1.81121 14.6647 3.33259 16.1858 5.20272 16.1858H12.7978C14.6679 16.1858 16.1893 14.6647 16.1893 12.7949V5.20177C16.1893 3.33198 14.6679 1.81088 12.7978 1.81088H5.20272V1.81041Z" fill="#00E782"/>
<path d="M9.00005 13.5529C6.48801 13.5529 4.44446 11.5097 4.44446 8.99812C4.44446 6.48654 6.48801 4.44336 9.00005 4.44336C11.5121 4.44336 13.5556 6.48654 13.5556 8.99812C13.5556 11.5097 11.5121 13.5529 9.00005 13.5529ZM9.00005 5.95591C7.32235 5.95591 5.95776 7.32072 5.95776 8.99764C5.95776 10.6746 7.32282 12.0394 9.00005 12.0394C10.6773 12.0394 12.0423 10.6746 12.0423 8.99764C12.0423 7.32072 10.6773 5.95591 9.00005 5.95591Z" fill="#00E782"/>
<path d="M13.6449 5.27912C14.2314 5.27912 14.7069 4.80368 14.7069 4.2172C14.7069 3.63071 14.2314 3.15527 13.6449 3.15527C13.0584 3.15527 12.583 3.63071 12.583 4.2172C12.583 4.80368 13.0584 5.27912 13.6449 5.27912Z" fill="#00E782"/>
</svg>