<svg width="21" height="20" viewBox="0 0 21 20" fill="none" xmlns="http://www.w3.org/2000/svg">
<path d="M20.257 20V12.675C20.257 9.075 19.482 6.325 15.282 6.325C13.257 6.325 11.907 7.425 11.357 8.475H11.307V6.65H7.33196V20H11.482V13.375C11.482 11.625 11.807 9.95 13.957 9.95C16.082 9.95 16.107 11.925 16.107 13.475V19.975H20.257V20ZM0.581958 6.65H4.73196V20H0.581958V6.65ZM2.65696 0C1.33196 0 0.256958 1.075 0.256958 2.4C0.256958 3.725 1.33196 4.825 2.65696 4.825C3.98196 4.825 5.05696 3.725 5.05696 2.4C5.05696 1.075 3.98196 0 2.65696 0Z" fill="#00E782"/>
</svg>
