<svg width="12" height="15" viewBox="0 0 12 15" fill="none" xmlns="http://www.w3.org/2000/svg">
<path d="M5.68223 0C4.17578 0.00162025 2.73148 0.600746 1.66622 1.66593C0.600958 2.73112 0.00172845 4.17537 0 5.68182C0 8.03258 3.25678 12.4692 4.99047 14.6649C5.0729 14.7694 5.17795 14.8539 5.29773 14.912C5.41751 14.9701 5.5489 15.0003 5.68202 15.0003C5.81515 15.0003 5.94653 14.9701 6.06631 14.912C6.18609 14.8539 6.29115 14.7694 6.37358 14.6649C8.10727 12.4696 11.364 8.03258 11.364 5.68182C11.3623 4.17544 10.7631 2.73125 9.69797 1.66608C8.6328 0.600902 7.18861 0.00172825 5.68223 0ZM8.21256 5.88914C8.17302 6.37234 7.99604 6.83414 7.70252 7.22001C7.40901 7.60588 7.01121 7.89971 6.5561 8.0668C6.10099 8.23389 5.60757 8.26728 5.1341 8.16301C4.66063 8.05874 4.22688 7.82117 3.88406 7.47835C3.54124 7.13554 3.30368 6.70179 3.19941 6.22832C3.09514 5.75485 3.12852 5.26143 3.29561 4.80632C3.46271 4.35121 3.75654 3.95341 4.14241 3.65989C4.52827 3.36638 4.99007 3.1894 5.47327 3.14986C5.84022 3.12156 6.20894 3.17301 6.55412 3.30066C6.89931 3.42832 7.21278 3.62916 7.47302 3.8894C7.73325 4.14964 7.9341 4.46311 8.06175 4.8083C8.18941 5.15348 8.24085 5.5222 8.21256 5.88914Z" fill="#00ed85"/>
</svg>
