<?xml version="1.0" encoding="UTF-8"?>
<svg xmlns="http://www.w3.org/2000/svg" version="1.1" viewBox="0 0 703.72 188.05">
  <defs>
    <style>
      .cls-1 {
        fill: #fff;
      }

      .cls-2 {
        fill: #00ec84;
      }
    </style>
  </defs>
  <!-- Generator: Adobe Illustrator 28.7.3, SVG Export Plug-In . SVG Version: 1.2.0 Build 164)  -->
  <g>
    <g id="Layer_1">
      <g>
        <g>
          <g>
            <path class="cls-1" d="M210.4,33.11v102.95h-27.27V33.11h27.27Z"/>
            <path class="cls-1" d="M305.83,58.02v78.05h-27.41v-11.13c-2.32,3.53-5.52,6.38-9.6,8.56-4.08,2.18-8.76,3.27-14.05,3.27-9.09,0-16.26-2.99-21.49-8.97-5.24-5.98-7.86-14.12-7.86-24.42v-45.35h27.13v41.87c0,4.45,1.18,7.95,3.55,10.5,2.37,2.55,5.5,3.83,9.39,3.83s7.14-1.27,9.46-3.83c2.32-2.55,3.48-6.05,3.48-10.5v-41.87h27.41Z"/>
            <path class="cls-1" d="M446.55,66.22c5.61,5.94,8.42,14.05,8.42,24.35v45.49h-27.27v-41.87c0-4.17-1.16-7.42-3.48-9.74-2.32-2.32-5.47-3.48-9.46-3.48s-7.14,1.16-9.46,3.48c-2.32,2.32-3.48,5.56-3.48,9.74v41.87h-27.27v-41.87c0-4.17-1.14-7.42-3.41-9.74-2.27-2.32-5.4-3.48-9.39-3.48s-7.28,1.16-9.6,3.48c-2.32,2.32-3.48,5.56-3.48,9.74v41.87h-27.27V58.02h27.27v10.29c2.41-3.34,5.54-6,9.39-8,3.85-1.99,8.28-2.99,13.29-2.99,5.75,0,10.87,1.25,15.37,3.76,4.5,2.5,8.04,6.03,10.64,10.57,2.78-4.27,6.44-7.72,10.99-10.36,4.54-2.64,9.55-3.96,15.03-3.96,9.83,0,17.55,2.97,23.16,8.9Z"/>
            <path class="cls-1" d="M491.7,58.02l16.42,44.24,15.86-44.24h29.91l-49.53,115.19h-29.63l18.64-40.48-32-74.71h30.33Z"/>
            <path class="cls-1" d="M633.46,66.29c5.29,5.98,7.93,14.07,7.93,24.28v45.49h-27.27v-41.87c0-4.45-1.16-7.95-3.48-10.5-2.32-2.55-5.43-3.83-9.32-3.83s-7.28,1.28-9.6,3.83c-2.32,2.55-3.48,6.05-3.48,10.5v41.87h-27.27V58.02h27.27v11.13c2.41-3.52,5.66-6.38,9.74-8.56,4.08-2.18,8.76-3.27,14.05-3.27,8.99,0,16.14,2.99,21.42,8.97Z"/>
          </g>
          <circle class="cls-1" cx="668.27" cy="121.93" r="15.08"/>
        </g>
        <g>
          <path class="cls-2" d="M97.59,135.95h-25.96c0-14.1-11.47-25.58-25.58-25.58v-25.96c28.42,0,51.54,23.12,51.54,51.54Z"/>
          <path class="cls-2" d="M123.18,135.95h-25.96c0-28.42,23.12-51.54,51.54-51.54v25.96c-14.1,0-25.58,11.47-25.58,25.58Z"/>
          <path class="cls-2" d="M148.76,84.83c-28.42,0-51.54-23.12-51.54-51.54h25.96c0,14.1,11.47,25.58,25.58,25.58v25.96Z"/>
          <path class="cls-2" d="M46.05,84.83v-25.96c14.1,0,25.58-11.47,25.58-25.58h25.96c0,28.42-23.12,51.54-51.54,51.54Z"/>
        </g>
      </g>
    </g>
  </g>
</svg>