<svg version="1.2" xmlns="http://www.w3.org/2000/svg" viewBox="0 0 512 512" width="512" height="512">
	<title>mail</title>
	<style>
		.s0 { fill: #00ed85 } 
	</style>
	<g>
		<path class="s0" d="m452.3 74.5h-392.6c-33 0-59.7 26.8-59.7 59.7v243.6c0 32.9 26.7 59.7 59.7 59.7h392.6c33 0 59.7-26.8 59.7-59.7v-243.6c0-32.9-26.7-59.7-59.7-59.7zm31.2 319.3l-11.4 13.5-159.1-129.9-24.7 23.5c-18.3 16.7-46.3 16.7-64.6 0l-24.7-23.5-159.1 129.9-11.4-13.5 149.4-136.5-150.4-141.3 8.9-11.8 219.6 166.4 219.6-166.4 8.9 11.8-150.4 141.3z"/>
	</g>
</svg>