<svg xmlns="http://www.w3.org/2000/svg" width="25" height="37" viewBox="0 0 25 37" fill="none">
<path d="M11.0404 19.9723L14.9545 13.7561H9.25777L13.1735 7.5415" stroke="#2DFF28" strokeWidth="2" strokeLinecap="round" strokeLinejoin="round"/>
<path d="M1.00477 12.4425C1.16424 17.8724 5.17469 20.6608 8.32147 25.0691C9.7425 27.0602 10.9741 30.3917 11.6214 32.3385C11.7793 32.8122 12.4456 32.8137 12.6082 32.3416C13.2919 30.3506 14.604 26.8865 16.0976 24.7786C19.2728 20.2977 23.2122 18.0998 23.2122 12.1062C23.2138 5.43529 17.3324 0.138026 10.472 1.11695C4.93627 1.90641 0.84056 6.85316 1.00477 12.4425Z" stroke="#2DFF28" strokeWidth="2" strokeLinecap="round" strokeLinejoin="round"/>
<path d="M8.05464 30.4563C6.23099 31.0073 5.0389 31.92 5.0389 32.9526C5.0389 34.5362 7.83517 35.8357 11.4098 35.9825C11.6388 35.9967 11.8709 35.9999 12.1061 35.9999C12.3856 35.9999 12.6572 35.9936 12.9288 35.9794C16.445 35.8041 19.1734 34.5157 19.1734 32.9526C19.1734 31.9326 18.0081 31.0263 16.2208 30.4737" stroke="#2DFF28" strokeWidth="2" strokeLinecap="round" strokeLinejoin="round"/>
</svg>