<svg width="15" height="15" viewBox="0 0 15 15" fill="none" xmlns="http://www.w3.org/2000/svg">
<path d="M14.5739 11.0085L12.4806 8.91518C11.733 8.16758 10.4621 8.46665 10.163 9.43851C9.93875 10.1114 9.19115 10.4852 8.5183 10.3356C7.02309 9.96183 5.00456 8.01806 4.63076 6.44809C4.40648 5.77522 4.85504 5.02761 5.52788 4.80336C6.49977 4.50432 6.79881 3.23339 6.05121 2.48578L3.95792 0.392492C3.35983 -0.130831 2.46271 -0.130831 1.93938 0.392492L0.518936 1.81294C-0.901513 3.30815 0.668457 7.27045 4.1822 10.7842C7.69594 14.2979 11.6582 15.9427 13.1535 14.4475L14.5739 13.027C15.0973 12.4289 15.0973 11.5318 14.5739 11.0085Z" fill="#00ed85"/>
</svg>
