        <svg width="184" height="151" viewBox="0 0 184 151" fill="none" xmlns="http://www.w3.org/2000/svg">
            <path opacity="0.09" d="M166.011 78.1583C178.004 78.1583 184 84.5704 184 97.3946V131.764C184 144.588 178.004 151 166.011 151H125.922C113.929 151 107.933 144.588 107.933 131.764V97.3946C107.933 75.3369 109.389 56.87 112.302 41.9939C115.214 26.9468 122.667 14.8065 134.659 5.57305C143.397 -1.09556 150.25 -1.77952 155.218 3.52117L164.983 14.0371C171.151 20.5347 170.209 26.9468 162.156 33.2734C156.674 37.5482 152.991 43.1053 151.106 49.9449C149.222 56.7845 148.279 66.189 148.279 78.1583H166.011ZM58.0782 78.1583C70.0708 78.1583 76.067 84.5704 76.067 97.3946V131.764C76.067 144.588 70.0708 151 58.0782 151H17.9888C5.99628 151 0 144.588 0 131.764V97.3946C0 75.3369 1.45624 56.87 4.36872 41.9939C7.28119 26.9468 14.7337 14.8065 26.7263 5.57305C35.4637 -1.09556 42.3166 -1.77952 47.2849 3.52117L57.0503 14.0371C63.2179 20.5347 62.2756 26.9468 54.2235 33.2734C48.7412 37.5482 45.0577 43.1053 43.1732 49.9449C41.2886 56.7845 40.3464 66.189 40.3464 78.1583H58.0782Z" fill="white"/>
        </svg>