<svg width="29" height="24" viewBox="0 0 29 24" fill="none" xmlns="http://www.w3.org/2000/svg">
<path fillRule="evenodd" clipRule="evenodd" d="M5.32022 10.3862L0.0557577 0.656578C-0.0337038 0.490376 -0.0138235 0.294241 0.107752 0.150879C0.229328 0.0083065 0.416662 -0.038168 0.587174 0.0327263L28.7309 11.5906C28.8968 11.6591 29 11.8159 29 12.0002C29 12.1845 28.8968 12.3413 28.7309 12.4098L0.587174 23.9676C0.415898 24.0378 0.229328 23.9921 0.107752 23.8487C-0.0138235 23.7061 -0.0344684 23.5092 0.0557577 23.3438L5.32022 13.615L18.6477 12.1577C18.7502 12.1467 18.8259 12.0797 18.8259 12.0002C18.8259 11.9206 18.7509 11.8545 18.6477 11.8426L5.32022 10.3854V10.3862Z" fill="#2DFF28"/>
</svg>
