<?xml version="1.0" encoding="UTF-8"?>
<svg id="Layer_1" data-name="Layer 1" xmlns="http://www.w3.org/2000/svg" viewBox="0 0 42.25 39">
  <defs>
    <style>
      .cls-1 {
        fill: #00ec84;
      }
    </style>
  </defs>
  <path class="cls-1" d="M5.07,23.6c-1.06-.15-2.37-1.28-2.5-2.37V3.79c.3-1.33,1.47-2.37,2.86-2.38h26.09c1.62.14,2.72,1.24,2.86,2.86.45,5.25-.35,11.14,0,16.46-.01.72-.38,1.3-.74,1.88,3.54,1.81,6.37,5.96,6.7,9.94.05.59.18,1.92-.4,2.16-3.55.21-7.16.04-10.73.09-.83,1.75-3.11,1.71-3.95,0h-10.32c-.18-.03-.5-.12-.63-.23-.56-.5.13-3.24.19-4.03h-6.64c-.56,0-.48-2.2-.43-2.62.08-.61.53-1.2,1.06-1.5.28-.16,1.16-.51,1.44-.51h2.99v-2.32h-7.86ZM5.1,2.79c-.93.27-1.23,1.08-1.31,1.98.33,5.01-.42,10.54,0,15.49.1,1.17.54,1.9,1.77,2.01,5.01.47,10.76-.37,15.85,0,2.99-1.36,5.99-1.68,9.2-.92,1.12.26,2.25,1.25,2.44-.72.5-5.11-.39-11.02,0-16.22-.02-.74-.57-1.32-1.22-1.58l-26.73-.03ZM26.58,22.26c-1.61.19-3.15.58-4.63,1.22.2.29.79,1.64,1.05,1.69.65-.24,1.29-.52,1.97-.68.33-.08,1.61-.17,1.61-.34v-1.89ZM27.92,22.26v1.89c0,.17,1.48.28,1.83.36.29.07,1.86.73,1.94.67l.86-1.64c-1.43-.76-3.03-1.11-4.63-1.28ZM19.27,23.6h-4.87v2.32h2.5l2.38-2.32ZM21.69,26.02c.12-.21-.75-1.51-.9-1.81-1.31.91-2.51,1.98-3.34,3.35l1.7,1.03c.59-1,1.53-2.02,2.55-2.57ZM33.65,24.21c.02.47-.79,1.23-.84,1.55-.04.27,1.13,1.01,1.39,1.25s1.08,1.41,1.24,1.45c.21.05,1.38-.6,1.51-.77.12-.15.08-.12.02-.27-.48-1.13-2.27-2.57-3.32-3.21ZM35.72,33.47c-.36-5.87-6.45-9.53-11.88-7.19-2.89,1.24-4.84,4.06-5.06,7.19h6.58s-.01-.21.07-.35c.44-.72.85-.68,1.32-1.12,1.13-1.05,2.17-3.01,3.3-4.14.66-.66,1.31-.39,1.26.52l-1.93,5.09h6.34ZM15.98,27.38h-6.4c-.1,0-.63.36-.7.52-.18.39-.06.9-.09,1.31h6.34c.1-.67.51-1.26.85-1.83ZM17.44,33.47c.01-1.28.42-2.57.96-3.72l-1.62-.9c-.5.12-1.42,3.96-1.29,4.62h1.95ZM37.06,33.47h1.95c-.01-1.6-.47-3.2-1.17-4.64l-1.76.86c.58,1.15,1,2.48.98,3.78ZM27.16,33.37c-.81.12-.7,1.44.09,1.43.97,0,.85-1.58-.09-1.43Z"/>
  <path class="cls-1" d="M16.25,38.07c-.4-.4-.08-1.37.64-1.19h20.85c1.11.11.98,1.38-.12,1.35h-20.73c-.19-.02-.5-.02-.64-.16Z"/>
  <path class="cls-1" d="M32.14,3.66c.19.19.31.47.29.74-.33,4.64.41,9.82,0,14.39-.02.27-.03.53-.25.73H4.76c-.26-.13-.36-.69-.37-.97.3-4.45-.39-9.39,0-13.78.06-.72.31-1.42,1.16-1.4l26.18.04c.14.07.3.14.41.25ZM31.09,4.71H5.86v13.53h25.23V4.71Z"/>
  <path class="cls-1" d="M17.34,10.09c-.15.65-1.19,1.75-1.31,2.29-.03.14.32.66.38.98.59,3.06-3.61,3.44-4.06,1.01-.09-.5.13-1.2.07-1.41-.01-.04-.46-.65-.49-.67-.15-.09-1.46.09-1.62.22l-2.26,3.83c-.42.4-1.06.04-1.09-.49-.04-.74,1.89-3.17,2.17-4.04-.31-1-.7-1.34-.23-2.41.88-1.99,4.04-1.28,4.03.86,0,.42-.33.81-.14,1.1.51.77.65.55,1.3.43.22-.04.49.04.7-.03s1.1-1.99,1.37-2.29c-.14-.37-.36-.63-.42-1.05-.45-3.28,4.43-3.43,4.13,0-.02.19-.21.41-.2.49,0,.05.55.63.63.68.42.25.76-.01,1.22-.02.43,0,.66.28,1.1.02.1-.06,1.54-1.49,1.58-1.6.21-.48-.46-1.36.39-2.4,2.03-2.48,5.41,1.38,2.75,3.12-1.07.7-1.81.07-2.11.2-.11.05-1.63,1.57-1.72,1.71-.22.34.34,1.39-.35,2.32-1.32,1.77-3.98.67-3.77-1.7.02-.2.24-.42.18-.56-.03-.07-.8-.81-.86-.82-.12,0-1.01.39-1.38.23ZM26.06,6.19c-.91.16-.81,1.78.43,1.42.77-.23.51-1.59-.43-1.42ZM17.53,7.29c-.81.24-.52,1.7.53,1.39.9-.27.51-1.7-.53-1.39ZM11.31,10.89c.44-.42.28-1.26-.39-1.32-1.57-.14-.62,2.28.39,1.32ZM21.31,10.95c-.92.17-.67,1.74.43,1.42.77-.23.56-1.6-.43-1.42ZM14.97,14.43c.66-.66-.44-1.86-1.12-1.06s.56,1.63,1.12,1.06Z"/>
</svg>