<?xml version="1.0" encoding="UTF-8"?>
<svg id="Layer_1" data-name="Layer 1" xmlns="http://www.w3.org/2000/svg" viewBox="0 0 46.72 39">
  <defs>
    <style>
      .cls-1 {
        fill: #00ec84;
      }
    </style>
  </defs>
  <path class="cls-1" d="M23.95,33.06c.75.21.65,1.98-.42,1.87-4.72-.24-9.83.37-14.5.02-2.34-.18-4.16-1.56-4.5-3.96l.07-25.88c.55-2.07,2.19-3.31,4.31-3.49,8.49.41,17.51-.55,25.94,0,2.14.14,4.32,1.42,4.62,3.71.28,2.13-.14,4.87-.05,7.05-.37.85-1.82.52-1.82-.35v-2.22h-4.3v6.11c0,1.13-1.88.91-1.88.4V3.5H12.6v29.56h11.35ZM10.72,3.5c-1.18-.04-2.75-.04-3.63.87-.16.17-.67,1.04-.67,1.21v2.35h4.3V3.5ZM37.59,7.93v-2.35c0-.17-.51-1.04-.67-1.21-.87-.91-2.45-.92-3.63-.87v4.43h4.3ZM10.72,9.81h-4.3v4.43h4.3v-4.43ZM10.72,16.13h-4.3v4.3h4.3v-4.3ZM10.72,22.31h-4.3v4.43h4.3v-4.43ZM10.72,28.62h-4.3v2.35c0,.17.51,1.04.67,1.21.87.91,2.45.92,3.63.87v-4.43Z"/>
  <path class="cls-1" d="M36.75,14.41c.25-.05.52-.06.77-.03.51.05,3.57,1.75,4.03,2.15.68.58.72,1.31.54,2.16l-9.34,16.19c-.59.77-2.78,2.08-3.71,2.47-1.29.54-2.66.09-2.86-1.41-.14-1.02-.1-3.76.25-4.7,3.22-4.99,5.78-10.89,9.09-15.77.34-.5.58-.93,1.23-1.05ZM28.05,35.61c1.06-.6,2.26-1.04,3.15-1.89l9.08-15.65c-.42-.27-2.76-1.84-3.07-1.66l-9.16,15.9v3.29Z"/>
  <path class="cls-1" d="M18.48,11.59c.63-.09,1.16.09,1.74.35,1.69.75,6.28,3.38,7.74,4.48s1.65,3.22.21,4.47c-2.52,1.32-5.02,3.16-7.56,4.4-2.12,1.04-4.27.45-4.52-2.11-.22-2.2-.18-6.51,0-8.74.11-1.4.91-2.64,2.39-2.85ZM18.61,13.6c-.32.1-.65.64-.64.98.19,2.6-.24,5.51,0,8.07.1,1.04.45,1.53,1.49,1.08,1.57-.69,5.77-3.11,7.16-4.13.63-.46.94-.95.27-1.57l-7.58-4.38c-.22-.11-.47-.12-.7-.05Z"/>
  <path class="cls-1" d="M38.5,29.05c1.13-.17,1.07,1.62.97,2.32-.18,1.22-2.07,3.71-3.45,3.07-.48-.22-.54-.92-.34-1.35.26-.56,1.55-.63,1.86-2.04.16-.75-.15-1.84.96-2Z"/>
</svg>