<?xml version="1.0" encoding="UTF-8"?>
<svg id="Layer_1" data-name="Layer 1" xmlns="http://www.w3.org/2000/svg" viewBox="0 0 41.08 39">
  <defs>
    <style>
      .cls-1 {
        fill: #00ec84;
      }
    </style>
  </defs>
  <path class="cls-1" d="M23.13,2.4h12.15c.07,0-.15-.98.44-1.16.27-.08,2.87-.06,3.1.04.16.07.32.3.35.47.06.34.04,2.64-.06,2.88-.27.65-1.26.03-1.24.76v28.2c-.02.75,1.06.09,1.28.84.08.27.08,2.48.02,2.8-.05.25-.28.48-.53.53-.36.07-2.47.07-2.83,0-.72-.14-.46-1.18-.53-1.18h-12.15c-.04.79.26,1.67-.76,1.78-.55.05-3.61.08-3.99-.03-.58-.18-.42-1.29-.44-1.75H5.8c-.07,0,.15.98-.44,1.16-.27.08-2.87.06-3.1-.04-.16-.07-.32-.3-.35-.47-.06-.34-.04-2.64.06-2.88.27-.65,1.26-.03,1.24-.76V5.4c.02-.75-1.06-.09-1.28-.84-.08-.27-.08-2.48-.02-2.8.05-.25.28-.48.53-.53.36-.07,2.47-.07,2.83,0,.72.14.46,1.18.53,1.18h12.15c.04-.79-.26-1.67.76-1.78.55-.05,3.61-.08,3.99.03.58.18.42,1.29.44,1.75ZM21.72,1.93h-2.36v2.36h2.36V1.93ZM4.38,2.51c-1.18-.1-1.28,0-1.18,1.18h1.18s0-1.18,0-1.18ZM37.88,3.7c.1-1.18,0-1.28-1.18-1.18v1.18s1.18,0,1.18,0ZM13.46,3.81h-7.67c-.07,0,.19,1.04-.53,1.18-.16.03-.76-.04-.76,0v7.78l.97-1.8c1.45-2.48,3.54-4.55,5.98-6.05l2.02-1.11ZM35.28,3.81h-7.67l1.95,1.06c2.22,1.37,4.15,3.18,5.6,5.36l1.41,2.54v-7.78c0-.05-.71.1-1.01-.11-.39-.28-.25-1.03-.29-1.07ZM17.94,4.05c-4.38.57-8.29,3.14-10.76,6.76-5.13,7.52-2.59,17.84,5.25,22.28,1.24.7,3.94,1.86,5.33,1.87.25,0,.15,0,.18-.18.05-.33-.07-.62.09-.98.14-.33.51-.31.51-.56,0-.32-1.16-3.48-1.38-3.94-.4-.84-1.11-1.48-1.99-1.79-.61-.21-1.65-.13-1.72-.88l2.59-12.99c-.09-1.77-.42-3.18,1.13-4.41,2.42-1.92,5.54-.18,7.99-.98.38-.12.91-.48,1.01-.88.04-.18-.01-.55.04-.61s1.31-.34,1.4-.25c.15,2.14-1.41,3.14-3.36,3.3-2.48.21-7.56-1.42-6.87,2.93l10.69,8.47c.44.7-.55,1.41-.83,2.09-.33.8-.37,1.59-.13,2.42l2.4,6.63c.29.05.48-.16.69-.31,4.59-3.03,6.95-9.35,6.23-14.7-.91-6.77-6.52-12.42-13.3-13.3.06,1.06.03,1.55-1.12,1.66-.61.06-3.21.07-3.64-.15-.57-.29-.43-.97-.44-1.51ZM26.56,28.23c-.97-2.23-1.48-4.3-.06-6.49l-7.91-6.37-.12.36,1.85,5.17c2.25-.2,3.4,2.79,1.58,4.14-2,1.48-4.61-.78-3.43-2.95.14-.26.62-.65.61-.83l-2.01-5.42-2.01,10.15c2.49.66,3.43,2.56,4.15,4.84l7.36-2.61ZM19.75,23.83c.66.82,2.24-.11,1.5-1.21s-2.27.25-1.5,1.21ZM4.5,26.22v7.78s.61-.03.76,0c.72.14.46,1.18.53,1.18h7.67l-2.02-1.11c-2.44-1.51-4.53-3.58-5.98-6.05l-.97-1.8ZM36.58,34.01v-7.78l-1.08,2.04c-1.43,2.29-3.38,4.22-5.65,5.68l-2.23,1.25h7.67c.07,0-.19-1.04.53-1.18.18-.03.73.03.76,0ZM28.32,33.29c.06-.08-.1-.57-.14-.72-.2-.67-.71-2.19-1-2.77-.05-.1-.1-.23-.22-.25l-7.24,2.58c-.06.07.23,1.09.43,1.16,1.14.38,3.36-.84,2.99,1.67,1.83-.17,3.53-.92,5.18-1.66ZM21.72,34.72h-2.36v2.36h2.36v-2.36ZM4.38,35.3h-1.18c-.1,1.19,0,1.28,1.18,1.18v-1.18ZM37.88,35.3h-1.18s0,1.18,0,1.18c1.18.1,1.28,0,1.18-1.18Z"/>
</svg>