<?xml version="1.0" encoding="UTF-8"?>
<svg id="Layer_1" data-name="Layer 1" xmlns="http://www.w3.org/2000/svg" viewBox="0 0 39.09 39">
  <defs>
    <style>
      .cls-1 {
        fill: #00ec84;
      }
    </style>
  </defs>
  <path class="cls-1" d="M13.2,33.31c-.52-.09-1.19-.74-1.33-1.26L7.27,14.42c-.32-.51-2.48-.46-3.09-.38-.44.06-.52.39-.88.47-2.06.48-2.2-2.5-.47-2.58.6-.03.83.42,1.24.5,1.39.26,2.96-.49,4.19.62.75.68.76,1.79,1.06,2.7.17.15,3.74-.14,4.44.07.99.3.5,1.55.18,1.55h-4.14l.86,3.7h3.58c-.03-.69-.72-2.52-.05-2.95.31-.2.75-.19,1.03.05.46.41.5,2.77.62,2.9.07.07,1.71-.19,1.46,1.02-.18.87-1.22.49-1.21.65.29.66.3,3.13.6,3.57.1.14,1.22-.06,1.35.78.16,1.04-1.02.84-1.09.9-.14.13.61,3.2.49,3.7h2.47v-2.16c0-.24.63-.48.92-.43.22.04.69.52.69.68v1.91h2.59v-2.04c0-.7,1.61-.68,1.61-.12v2.16h2.28l.16-.21.51-3.5c-1.05.33-1.56-1.13-.61-1.54.28-.12.77-.01.85-.08.12-.1.49-2.78.51-3.13.05-.89-.08-.41-.66-.58-.45-.13-.59-.94-.29-1.3.35-.43,1.27-.23,1.32-.28.1-.11.12-2.38.55-2.85.25-.28.59-.33.93-.17.9.41.12,2.25.12,3.02h3.58l.86-3.7h-4.14s-.38-.35-.41-.46c-.2-.65.3-1.08.9-1.15.79-.09,3.16-.1,3.92.03,1.24.21,1.43,1.12,1.27,2.2-.63,4.33-2.76,9.15-3.49,13.55-.01.56-.93,1.76-1.45,1.76h-1.91c1.63,5.63-7.04,5.58-5.31,0h-4.82c1.68,5.63-7.03,5.58-5.31,0-.58-.07-1.36.1-1.91,0ZM14.5,22.69h-3.33l.86,3.7h2.96l-.49-3.7ZM34.5,22.69h-3.33l-.62,3.7h2.9c.51-1.15.72-2.48,1.05-3.7ZM15.86,31.7c-.1-.44-.41-3.7-.68-3.7h-2.65c.34,1.21.48,2.58,1.05,3.7h2.28ZM33.14,28h-2.84l-.49,3.7h2.35l.99-3.7ZM17.56,33.33c-1.69.28-1.33,3.06.68,2.54,1.38-.36.92-2.8-.68-2.54ZM27.68,33.33c-.28.05-.81.42-.94.67-.81,1.55,1.43,2.73,2.26,1.27.53-.93-.3-2.11-1.32-1.94Z"/>
  <path class="cls-1" d="M26.36,22.18s.55.29.73.57c.74,1.14-.28,3.29-1.17,4.14-2.89,2.72-8.2.29-7.58-3.63.14-.88.94-.79.83-1.58-.38-2.74-3.68-3.87-4.03-7.58-1.08-11.37,16.13-11.45,15.42-.36-.25,3.82-2.81,4.41-3.83,7.16-.06.17-.39,1.23-.36,1.29ZM24.73,22.06c.26-3.73,4.11-4.92,4.22-8.68.21-7.46-10.49-8.65-12.09-1.72-1.1,4.79,2.69,5.53,3.72,9.09.13.44.26.86.21,1.33l3.93-.02ZM25.74,23.68h-5.8c.3,3.64,5.44,3.69,5.8,0Z"/>
  <path class="cls-1" d="M13.06,8.45c-.51-.47-.33-1.35.41-1.44s2.35.88,1.53,1.79c-.51.57-1.48.07-1.94-.35Z"/>
  <path class="cls-1" d="M31.76,7.04c1.07-.28,1.6.82.57,1.56-.51.36-1.47.81-1.83.02-.33-.72.7-1.42,1.27-1.57Z"/>
  <path class="cls-1" d="M27.62,3.22c.33-.25,1.04-.15,1.23.24.34.69-.69,2.73-1.7,1.83-.55-.49.07-1.76.47-2.06Z"/>
  <path class="cls-1" d="M22.49,1.73c1.57-.46,1.36,2.21.69,2.42-1.57.48-1.4-2.21-.69-2.42Z"/>
  <path class="cls-1" d="M32.37,12.34c.57-.13,1.7-.16,1.86.56.25,1.1-.96,1.14-1.76,1.01-.99-.16-1.04-1.36-.1-1.57Z"/>
  <path class="cls-1" d="M17.43,3.08c.94-.08,1.93,2.21.68,2.43-.99.17-2.18-2.3-.68-2.43Z"/>
  <path class="cls-1" d="M12,12.34c.61-.14,1.8-.16,1.89.66.1,1.01-1.05,1.02-1.78.91-.99-.16-1.04-1.36-.1-1.57Z"/>
  <path class="cls-1" d="M23.66,9.45c.04.06.87.47,1.14.9.79,1.22-.46,2.09-1.11,1.36-.17-.19-.18-.48-.35-.63-.5-.46-1.4-.04-1.16.78.17.57,1.08.46,1.58.65,1.32.5,1.79,2.31.99,3.46-.27.38-1.04.77-1.09.83-.16.23.06.79-.62.93-.9.2-.79-.42-1.09-.83-.15-.21-.6-.36-.85-.63-.4-.44-.94-1.51-.16-1.88,1.14-.54,1.1,1.01,1.86.99s1-1.06.3-1.36c-.3-.12-.63-.08-.93-.18-1.7-.56-2.27-2.4-1.11-3.79.29-.34.65-.43.84-.64.28-.32.15-.86.82-.92.83-.07.74.66.94.96Z"/>
</svg>