<?xml version="1.0" encoding="UTF-8"?>
<svg id="Layer_1" data-name="Layer 1" xmlns="http://www.w3.org/2000/svg" viewBox="0 0 34.8 39">
  <defs>
    <style>
      .cls-1 {
        fill: #00ec84;
      }
    </style>
  </defs>
  <path class="cls-1" d="M6.25,36.49c-.12.15.12,1.65-1.01,1.9-.43.1-2.76.1-3.2.02-.31-.06-.82-.46-.92-.76l-.06-11.08c-.03-.43.49-.97.88-1.07s2.89-.1,3.31,0c.77.17.88,1.16,1.02,1.25.18.11,2.7-.31,3.09-.43,1.73-.54,3.64-2.09,5.5-2.26,1.64-.15,6.94,1.04,8.03,2.32.33.39.43.86.65,1.3,1.82-.97,3.57-2.2,5.39-3.15.59-.31,1.23-.74,1.89-.83,3.13-.42,4.7,3.34,2.22,5.33-1.81,1.45-5.65,3.45-7.8,4.63-1.69.92-3.85,2.17-5.66,2.76-2.63.86-5.73-.07-8.47-.19-.64-.03-4.6-.02-4.85.28ZM6.24,35.19c1.48-.21,2.97-.33,4.47-.26,2.23.1,4.8.68,6.98.63,2.34-.05,10.69-5.11,13.05-6.6,1.21-.76,2.95-1.5,1.97-3.22-.41-.71-1.14-.85-1.92-.74-3.01,1.46-5.75,3.45-8.68,5.04-1.47.8-5.01.15-6.76-.02-.38-.04-.81.06-1.16,0-.73-.13-.76-1.17-.13-1.29l6.59.51c1.68-.45,2.15-1.7.38-2.56-1.33-.65-5.23-1.55-6.63-1.22-1.65.39-3.37,1.77-5.05,2.2-.98.25-2.13.26-3.13.43v7.12ZM4.95,26.77h-2.72v10.36h2.72v-10.36Z"/>
  <path class="cls-1" d="M7.6,12.79c-.24-.07-.57-.71-.33-.97L12.43,1.44c.27-.58.93-.84,1.3-.21l3.15,6.37c.27.17,4.88-.07,5.74.02.51.06.9.14.98.71s-.15,2.91.05,3.19c5.23.72,7.24,7.31,3.05,10.67-3.76,3.02-9.1.57-9.73-4.06-.73-.17-3.06.21-3.55-.14-.06-.04-.31-.43-.31-.46v-4.72h-5.5ZM8.96,11.5h4.14v-3.3c0-.1.56-.51.74-.56.24-.05,1.59.03,1.59-.09l-2.33-4.59-4.14,8.54ZM22.42,16.81v-7.7s-.18-.19-.19-.19h-7.83v7.9h8.03ZM23.58,12.92v4.85s-.3.32-.32.32h-4.98c.52,3.05,3.47,4.91,6.43,3.78,4.46-1.7,3.65-8.55-1.12-8.96Z"/>
  <path class="cls-1" d="M7.53,22.24h4.21c.26,0,.69,1.08-.16,1.27-.67.15-3.74.12-4.5.03-.65-.08-.77-.35-.84-.97-.08-.77-.12-3.57.03-4.24.2-.91,1.27-.62,1.27-.29v4.21Z"/>
  <path class="cls-1" d="M27.73,2.18h-3.95c-.45,0-1.03-1.03-.23-1.27.9.11,4.64-.27,5.16.1.2.14.29.48.32.72.09.81.11,3.48-.03,4.24-.09.49-.42.93-.94.62-.05-.03-.32-.31-.32-.33V2.18Z"/>
</svg>