<?xml version="1.0" encoding="UTF-8"?>
<svg id="Layer_1" data-name="Layer 1" xmlns="http://www.w3.org/2000/svg" viewBox="0 0 37.81 39">
  <defs>
    <style>
      .cls-1 {
        fill: #00ec84;
      }
    </style>
  </defs>
  <path class="cls-1" d="M27.06,23.1l3.31-2.47c2.06-.02,4.35.05,4.92-2.41l-.04-13.68c-.21-.99-1.29-2.02-2.31-2.16-.64-.09-1.73.13-2.26-.03-.47-.14-.63-1.04.09-1.13,3.08-.37,5.54.71,5.79,4.07.32,4.26-.13,9.08-.15,13.37-.8,2.65-3.04,3.28-5.59,3.11l-4.03,3.07c-.21.24-.88-.18-.88-.32v-2.8h-6.58c-.17,0-.62-.25-.86-.23v2.63h5.44c.16,0,1.12.63,1.27.8.13.15.62,1.07.62,1.21v3.43c0,.37-1.14.37-1.14,0v-3.09c0-.48-.79-1.23-1.31-1.2-2.24.2-4.92-.26-7.1,0-.81.1-1.25.65-1.32,1.43-.15,1.6-.17,5.29,0,6.87.1.93.64,1.34,1.55,1.43,1,.1,3.08-.21,3.87.02.41.12.39.69.48,1.01.32-.15,1.03-.93,1.28-1.01.66-.2,1.76.19,2.31-.67.49-.76-.17-2.41.86-2.3.77.08.59,1.68.45,2.24-.19.79-1.16,1.68-1.95,1.83-.42.08-.86-.06-1.26.11-.55.24-1.71,1.59-2.26,1.64-1.05.11-.69-1.02-.75-1.73h-3.72c-.59,0-2-1.31-2-1.89v-6.58l-2.86,2.13c-.35.18-.8-.28-.8-.58v-1.89h-5.09c-1.23,0-2.59-1.33-2.89-2.49-.27-1.05-.28-5-.15-6.15.1-.86.92-1,1.26-.22l.03,6.04c.29.86.93,1.49,1.86,1.58,1.8.18,3.87-.16,5.71.02.72.17.5.97.54,1.52.01.17-.09.33.17.28l2.12-1.66c.28-.51.41-1.02.85-1.44.16-.15,1.01-.68,1.15-.68h1.66v-10.48c0-.66-1.42-1.76-2.13-1.65-3.13.21-6.74-.33-9.82,0-.99.11-1.98.73-2.12,1.77-.09.63.31,2.26-.75,2.11-.91-.13-.45-2.45-.2-3.06.33-.8,1.6-1.98,2.48-1.98h11.05v-5.67c0-1.76,1.5-3.5,3.18-3.92,2.65.21,5.99-.37,8.56-.03.78.1.63.97,0,1.15l-8.19.05c-3.59.65-1.9,6.29-2.28,8.82.48.72,1.23,1.25,1.36,2.19l.07,6.69c.15.24,1.29.43,1.61.45,2,.17,4.51-.26,6.41,0,.15.02.51.15.51.29v2.23Z"/>
  <path class="cls-1" d="M28.44,9.59h2.8c.49,0,1.12.72,1.19,1.21.17,1.07.12,4.35.01,5.49-.07.72-.6,1.25-1.32,1.32-1.39.13-4.48.14-5.84,0-.4-.04-1.07-.42-1.26-.42-1,.01-2.16.29-3.32.19-.64-.05-.69-.11-.74-.74-.13-1.55-.14-4.53,0-6.08.02-.26.02-.49.24-.68.31-.27,2.49-.21,3.04-.18.25.01.67.21.74.18.19-.09,1.71-1.98,1.85-2.27.44-.92.06-2.44,1.41-2.49,1.76-.05,1.85,3.34,1.2,4.47ZM25.52,16.46h5.61s.17-.16.17-.17v-5.27c0-.1-.39-.26-.52-.28-.99-.16-2.32.13-3.32,0-1.05-.14-.16-1.28,0-1.84.18-.61.22-.99.15-1.63-.02-.17-.12-.71-.31-.77,0,1.33-.76,2.25-1.55,3.21-.38.45-1.58,1.52-1.66,2.01-.07.43-.08,3.66.02,3.98.09.29,1.12.73,1.41.77ZM22.94,10.96h-1.72v5.27h1.72v-5.27Z"/>
  <path class="cls-1" d="M6.51,18.63c-.26-.07-.47-.55-.38-.83.18-.6,2.05-.18,2.6-.33.26-.16.14-3.36,1.33-2.28.53.48-.13,1.61-.06,2.29.25-.05.97.08,1.13-.02.27-.17.03-2.4.89-2.48,1.11-.1.31,1.93.38,2.49h1.77c.32,0,.5,1.01-.23,1.14-.32.06-1.65-.07-1.76.02-.09.08-.15.94-.13,1.13h1.89c.08,0,.46.29.5.42.42,1.36-2.2.59-2.62.89-.4.6,0,2.2-.88,2.33-1.06.16-.47-1.83-.38-2.38-.2.03-1.22-.05-1.26,0-.11.11.12,2.15-.68,2.36-1.16.29-.49-1.76-.46-2.35h-1.66s-.35-.33-.38-.43c-.39-1.32,2.07-.65,2.26-.84.04-.04.13-.97.23-1.14-.57-.1-1.62.14-2.12,0ZM10.92,18.63c-.19.03-1.1-.05-1.14,0-.04.04-.09.98-.12,1.14.2-.04,1.08.06,1.14,0,.04-.04.16-1.1.12-1.14Z"/>
  <path class="cls-1" d="M18.1,27.59c.92-.19,1.13.25,1.6.29.19.02.6-.27.91-.31,1.97-.26,2.93,1.91,1.91,3.51-.37.58-2.04,1.98-2.72,1.98-.89,0-2.78-1.68-3.04-2.58-.31-1.1.12-2.64,1.35-2.9ZM18.44,28.72c-.34.09-.65.69-.63,1.04.04.75,1.15,1.75,1.81,1.98.61.21,3.25-2.01,1.64-2.91-.77-.43-1.04.66-1.47.67-.51.02-.67-.97-1.35-.78Z"/>
</svg>