<?xml version="1.0" encoding="UTF-8"?>
<svg id="Layer_1" data-name="Layer 1" xmlns="http://www.w3.org/2000/svg" viewBox="0 0 39.09 39">
  <defs>
    <style>
      .cls-1 {
        fill: #00ec84;
      }
    </style>
  </defs>
  <path class="cls-1" d="M25.12,33.2h-1.67c.2,5.52-8,5.51-7.8,0h-1.67v-5.18c-8.01-4.95-6.05-17.33,3.23-19.39,11.71-2.61,17.95,13.1,7.92,19.39v5.18ZM18.52,10.61c-5.95.67-9.26,7.5-6.24,12.64.59,1,2.56,3.06,3.7,3.32,1.92.44,5.11-.19,7.16.02,8.47-4.14,4.88-17.05-4.62-15.99ZM22.89,28.74h-6.69v2.23h6.69v-2.23ZM21.22,33.2h-3.34c-.27,2.61,3.62,2.61,3.34,0Z"/>
  <path class="cls-1" d="M6.84,20.05H2.16v-2.06s.16-.17.17-.17h4.35s.17.16.17.17v2.06Z"/>
  <path class="cls-1" d="M36.93,20.05h-4.68v-2.06s.16-.17.17-.17h4.35s.17.16.17.17v2.06Z"/>
  <path class="cls-1" d="M7.92,6.02c.13-.03.23,0,.32.09l3.06,3.07-1.52,1.5-3.26-3.18c-.02-.12,1.28-1.44,1.41-1.48Z"/>
  <path class="cls-1" d="M9.71,27.31c.26-.07,1.61,1.34,1.59,1.48l-3.26,3.18-1.52-1.5c.59-.39,2.77-3.05,3.2-3.16Z"/>
  <path class="cls-1" d="M29.21,27.31c.13-.03.23,0,.32.09l3.06,3.07-1.52,1.5-3.26-3.18c-.02-.12,1.28-1.44,1.41-1.48Z"/>
  <path class="cls-1" d="M30.99,6.02c.3-.08,1.4,1.16,1.57,1.49l-3.24,3.17-1.52-1.5c.59-.39,2.77-3.05,3.2-3.16Z"/>
  <rect class="cls-1" x="18.43" y="1.66" width="2.23" height="4.57"/>
  <path class="cls-1" d="M15.6,19.11c.13-.15,1.01-1.07,1.11-1.07l1.55,1.34,4.04-4c.21-.04,1.33,1.29,1.6,1.5l-5.64,5.62-3-2.89c-.1-.21.24-.38.35-.5Z"/>
</svg>