<?xml version="1.0" encoding="UTF-8"?>
<svg id="Layer_1" data-name="Layer 1" xmlns="http://www.w3.org/2000/svg" viewBox="0 0 42.15 39">
  <defs>
    <style>
      .cls-1 {
        fill: #00ec84;
      }
    </style>
  </defs>
  <path class="cls-1" d="M11.08,10.72v2.34h3.81c.21,0,2.47-2.67,2.95-2.91l6.3-.02c.1,0,.17.06.24.11.75.43,1.94,2.28,2.68,2.71.32.19.64.1,1,.11-.44-3.33,4.15-3.1,3.54.22,1.4.49,1.91,1.91,1.74,3.3h.59c-.53-2.07,2.08-3.32,3.28-1.58.45.66.08,1.52.25,1.8.03.05.77.37,1.04.66.33.36.65,1.04.7,1.52-.35,5.22.46,11.04,0,16.18-.12,1.37-1.26,2.47-2.64,2.52H5.39c-1.31-.12-2.32-1.13-2.52-2.41V15.46c.2-1.22,1.13-2.17,2.34-2.4v-2.34h-2.05c-.15,0-.28-.37-.3-.52-.12-.87-.11-3.94,0-4.82.05-.42.22-.54.64-.53l9.68.06c.2.11.21.26.24.46.13.98.1,3.69,0,4.7-.02.17-.09.64-.3.64h-2.05ZM12.25,6.03H4.05v3.52h8.21v-3.52ZM9.91,10.72h-3.52v2.34h3.52v-2.34ZM25.38,13.06l-1.72-1.73c-1.56.08-3.37-.18-4.91-.03-.73.07-1.51,1.25-2.04,1.77h8.68ZM5.78,14.26c-1.18.17-1.64.88-1.73,2.02.38,5.88-.5,12.38,0,18.18.12,1.35.7,1.94,2.05,2.05h29.9c1.35-.12,1.94-.7,2.05-2.05-.31-4.74.4-9.98,0-14.66-.11-1.27-.65-1.92-1.94-2.05-.77-.08-3.23.17-3.69-.06-.39-.19-.2-1.19-.25-1.63-.13-1.1-.73-1.69-1.82-1.82l-24.57.02Z"/>
  <path class="cls-1" d="M33.67,1.36c1.13-.35.93,1.47,1.3,2.29s1.22,1.62,2.02,1.97c.52.23,2.01.34,2.17.64.54,1.07-.84.94-1.38,1.09-1.25.33-2.31,1.1-2.84,2.32-.23.52-.34,2.01-.64,2.17-1.09.55-.96-.92-1.11-1.47-.32-1.2-1.2-2.32-2.38-2.78-.49-.19-1.93-.31-2.08-.61-.54-1.07.84-.94,1.38-1.09,1.63-.43,2.67-1.48,3.11-3.11.1-.37,0-1.27.46-1.41ZM33.88,4.62c-.07.02-.6.84-.76,1-.2.21-1.22.89-1.18,1.05.02.07.84.6,1,.76.21.2.89,1.22,1.05,1.18.07-.02.6-.84.76-1,.2-.21,1.22-.89,1.18-1.05-.02-.07-.84-.6-1-.76-.21-.2-.89-1.22-1.05-1.18Z"/>
  <path class="cls-1" d="M19.61,16.02c9.59-1.12,14.72,10.45,7.53,16.56s-17.59-.75-15.18-9.79c.89-3.34,4.18-6.36,7.65-6.77ZM26.51,19.32c-8.05-7.14-18.68,4.81-11.09,11.97,7.95,7.5,19.15-4.81,11.09-11.97Z"/>
  <path class="cls-1" d="M5.54,15.43l6.48.03c.2.11.21.26.24.46.04.34.04,2.56-.06,2.76-.08.17-.28.24-.46.24l-6.28-.06c-.14-.08-.2-.2-.23-.36-.06-.31-.04-2.68.05-2.87.05-.1.15-.18.26-.21ZM11.08,16.58h-4.69v1.17h4.69v-1.17Z"/>
  <path class="cls-1" d="M29.8,31.84c1.59-.36,2.82.85,2.33,2.44-.07.24-.75.92-1,1-1.6.49-2.91-.82-2.42-2.42.09-.28.79-.96,1.09-1.02Z"/>
  <path class="cls-1" d="M19.73,18.36c8.08-1.16,11.52,9.21,4.99,13.08-5.85,3.46-12.79-2.42-10.26-8.73.83-2.07,3.02-4.02,5.27-4.35ZM20.91,19.54c-7.62.22-7.29,11.76.18,11.68s7.44-11.91-.18-11.68Z"/>
</svg>