<?xml version="1.0" encoding="UTF-8"?>
<svg id="Layer_1" data-name="Layer 1" xmlns="http://www.w3.org/2000/svg" viewBox="0 0 35.41 39">
  <defs>
    <style>
      .cls-1 {
        fill: #00ec84;
      }
    </style>
  </defs>
  <path class="cls-1" d="M26.9,15.7c-5.73-5.43-15.3-4.65-19.98,1.72-2.38,3.24-2.6,7-1.76,10.84.14.63.91,2.67.88,3.03-.09.91-1.41,1.3-1.95.57-.22-.29-.63-1.7-.75-2.13C.63,19.62,6.32,10.41,17.04,9.89c8.15-.39,16.97,6.91,15.63,15.51-.8,5.17-9.06,6.06-11.07.81-.44-1.16-.14-2.26-.7-3.39-1.4-2.86-6.38-2.26-6.8.82-.6,4.44,2.57,9.15,6.45,11.06.8.39,2.49.78,3.03,1.17.84.6.44,1.9-.56,1.95-.75.04-3.22-1.09-3.96-1.5-4.36-2.42-7.71-7.67-7.11-12.79.66-5.65,9.47-6.36,11.18-.89.51,1.62-.04,2.91,1.47,4.17,2.34,1.95,6.08.41,6.07-2.7,0-2.99-1.62-6.39-3.77-8.42Z"/>
  <path class="cls-1" d="M17.19,14.37c4.29-.18,8.65,2.31,10.25,6.36.39.99,1.42,4.28-.11,4.62s-1.32-1.67-1.51-2.64c-1.04-5.29-7.51-7.62-12.13-5.24-7.42,3.83-4.01,14,.94,18.46.27.93-.36,1.63-1.32,1.45-.25-.05-1.49-1.32-1.75-1.61-3.57-4.03-5.91-11.16-3.06-16.15,1.75-3.07,5.14-5.09,8.68-5.24Z"/>
  <path class="cls-1" d="M3.02,15.26c-.86.79-2.18-.12-1.67-1.37.34-.85,2.77-3.22,3.57-3.87,8.2-6.64,21.96-5.73,28.43,2.89.47.62,1.39,1.76.36,2.37-1.24.73-2.07-1.17-2.8-1.97-7.24-7.9-20.3-7.23-27.13.85-.24.28-.56.92-.76,1.1Z"/>
  <path class="cls-1" d="M29.06,4.17c.56.61.16,1.69-.62,1.77s-1.43-.51-2.11-.78c-6.45-2.62-12.7-2.49-18.91.77-.91.24-1.68-.73-1.18-1.54.35-.57,3.08-1.68,3.83-1.93,5.46-1.87,11.31-1.67,16.62.55.47.19,2.1.88,2.37,1.17Z"/>
  <path class="cls-1" d="M17.18,23.36c1.72-.41,1.34.93,1.51,1.92.57,3.41,3.35,6.31,6.87,6.58,1.19.09,2.37-.15,3.55-.07.89.42.83,1.72-.15,2.03-1.1.35-3.41.25-4.57.05-3.6-.64-6.76-3.76-7.6-7.28-.18-.78-.7-2.96.39-3.22Z"/>
</svg>