<?xml version="1.0" encoding="UTF-8"?>
<svg id="Layer_1" data-name="Layer 1" xmlns="http://www.w3.org/2000/svg" viewBox="0 0 42.75 39">
  <defs>
    <style>
      .cls-1 {
        fill: #00ec84;
      }
    </style>
  </defs>
  <path class="cls-1" d="M20.3,21.34h7.33s.42.39.42.42v3.21c2.08-.76,4.03-2,6.09-2.77.48.14.54.44.58.88.21,2.32.21,7.02,0,9.35-.06.64-.17.91-.89.76l-5.79-2.76v3.33c0,.19-.58.4-.79.43-2.5.3-5.53-.25-8.09.03-1.37.89-2.48,2.16-3.79,3.12-2.26,1.65-.96-2.06-1.03-3.15h-2c-.1,0-.57-.36-.54-.55v-6c-.85.27-2.24-.46-2.94-.34s-2.85,1.48-3.76,1.82c-.15.06-.28.13-.45.1l.95-3.67C.49,21.16,1.47,12.69,7.73,9.92c7.48-3.3,15.15,3.74,12.57,11.42ZM17.11,24.21c5.45-5.23,1.35-14.44-6.18-13.88-6.64.5-9.74,8.47-5.35,13.44.24.28,1.34,1.15,1.38,1.3.1.37-.38,1.53-.47,1.97.21.17,2.02-1.02,2.38-1.06.31-.03,1.61.42,2.16.46,2.09.14,4.58-.78,6.08-2.23ZM26.85,22.55h-6.97c-1.37,2.42-3.32,4.01-5.99,4.79-.3.09-.66-.03-.85.24v5.39h2.36c.65,0,.03,2.24.06,2.67.52-.2,3-2.67,3.21-2.67h8.18v-10.42ZM33.51,31.64v-7.88l-5.34,2.6c-.17.19-.17,2.06-.13,2.43.02.17.01.32.2.4l5.26,2.44Z"/>
  <path class="cls-1" d="M32.68,6.05c.06.04.96.08,1.24.15,2.13.57,2.97,3.26,1.83,5.09.32.73,1.75,2.43,1.5,3.18-.04.12-.14.19-.26.23-2.39.41-4.82.73-7.24.94l2.41,4.19c.8,1.66-2.11,1.18-3.05,1.24-.2-.06-.69-.74-.86-.96-.36-.44-1.62-2.43-1.89-2.6s-.9.15-1.27.18c-3.03.27-5.01-3.05-3.31-5.61.78-1.17,2.64-1.73,3.74-2.57l4.85-6.3c.25-.11.58-.14.79.06.28.32,1.4,2.69,1.53,2.77ZM35.69,13.7l-5.03-8.85-4,5.1c-.14.3.14.64.28.92.64,1.24,1.52,2.44,2.16,3.69l6.59-.86ZM35.09,9.82c.11-1.02-.48-2.25-1.58-2.42.45.71.81,1.48,1.28,2.18.09.14-.03.31.3.24ZM25.63,10.92c-1.72.85-4.38,2.18-2.89,4.53,1.34,2.1,3.7.55,5.18-.46l-2.29-4.06ZM28.65,16.14c-.21-.15-1.1.5-1.32.66.51.51,1.92,2.98,2.49,3.09.28.05.62-.02.91,0l-2.07-3.75Z"/>
  <path class="cls-1" d="M34.76,1.37c.39-.32,1.03,0,1.04.51,0,.21-.62,2.42-.74,2.64-.34.63-1.09.34-1.15-.32.25-.47.55-2.59.85-2.84Z"/>
  <path class="cls-1" d="M39.67,4.75c.59-.15,1.04.64.51,1.12-.1.09-2.02,1.22-2.14,1.25-.26.07-.61.1-.82-.09-.93-.81,2.03-1.88,2.46-2.28Z"/>
  <path class="cls-1" d="M37.79,11.01c-.25-.21-.23-.92.18-1.04.33-.1,2.64.44,2.94.65.46.32.34,1.11-.29,1.13-.22,0-2.71-.64-2.82-.74Z"/>
  <path class="cls-1" d="M9.36,17.85c.22.22.23.84-.09,1s-1.42.17-1.61-.21c-.5-1.04,1.32-1.17,1.7-.79Z"/>
  <path class="cls-1" d="M11.05,17.73c.51-.15,1.37-.1,1.47.55.12.77-.96.74-1.49.64-.66-.13-.51-1.03.02-1.18Z"/>
  <path class="cls-1" d="M14.08,17.73c.48-.11,1.35-.11,1.38.52.04.78-.8.78-1.4.66-.64-.12-.71-1.01.02-1.18Z"/>
  <path class="cls-1" d="M23.05,27.06c.5-.14,1.46-.16,1.5.52.04.78-.8.77-1.4.66-.66-.12-.73-1-.1-1.18Z"/>
  <path class="cls-1" d="M18.45,28.1c-.28.28-1.51.26-1.73-.22-.38-.83,1-1.01,1.56-.83.34.12.41.8.17,1.04Z"/>
  <path class="cls-1" d="M20.02,27.06c.58-.17,1.86-.04,1.52.79-.25.63-1.68.51-1.83.08-.1-.28-.03-.76.31-.86Z"/>
</svg>