<?xml version="1.0" encoding="UTF-8"?>
<svg id="Layer_1" data-name="Layer 1" xmlns="http://www.w3.org/2000/svg" viewBox="0 0 39.05 39">
  <defs>
    <style>
      .cls-1 {
        fill: #00ec84;
      }
    </style>
  </defs>
  <path class="cls-1" d="M29.03,9.97c.56.3,1.74.32,1.84,1.04.06.45.09,2.91-.01,3.26-.16.55-1.83.78-1.87.98-.06.32.64,1.04.82,1.42,2.34,4.91-3.83,9.48-7.81,5.81-.2,0-.36,1.36-.85,1.5-.26.08-3.06.08-3.39.02-.65-.12-.56-1.42-1.01-1.82-.21-.19-.88-.32-1.2-.45-.23-.09-.88-.51-1-.53-.39-.07-1.35.91-2.13.6-.15-.06-2.21-2.17-2.28-2.32-.27-.64.59-1.46.59-2.01,0-.41-.9-1.59-.88-2.17-.48-.41-1.76-.49-1.91-1.15-.08-.34-.09-2.95,0-3.25.18-.63,1.68-.7,1.92-1.03.09-.13.31-.97.41-1.24s.41-.66.45-.86c.14-.68-1.03-1.45-.45-2.32.16-.25,2.16-2.19,2.35-2.25.46-.14,1.38.64,1.82.65s1.65-.85,2.27-.84c.36-.55.43-1.78,1.17-1.95.43-.1,3.06-.08,3.37.11.36.22.48,1.41.84,1.75.08.08,1.92.86,2.06.89.78.16,1.51-.94,2.23-.48.23.15,2.29,2.21,2.34,2.37.18.6-.69,1.57-.66,1.96.04.41.94,1.69.94,2.29ZM26.03,4.73c-.31-.18-1.11.46-1.47.54-.63.13-1.04-.36-1.6-.59-.63-.25-1.73-.4-2.05-1.01-.13-.25-.33-1.16-.49-1.27-.27-.19-1.52.03-1.93-.06-.19.05-.51,1.35-.68,1.58s-1.68.66-2.11.84c-.34.14-.63.48-1.01.53-.6.07-1.38-.66-1.73-.57-.09.02-1.21,1.11-1.27,1.22-.33.56.58,1.32.46,1.98-.04.22-.49.82-.63,1.15-.15.37-.5,1.67-.68,1.85-.22.21-1.55.56-1.6.64-.05.08-.05,1.62-.02,1.81.1.53,1.41.49,1.75,1.07.19.32.26.94.43,1.34s.74,1.29.76,1.6c.03.52-.67,1.32-.57,1.73.02.09,1.18,1.28,1.28,1.32.28.14,1.24-.58,1.61-.63.27-.04,1.18.58,1.56.74.43.18,1.29.32,1.59.53.49.33.47,1.56.93,1.65.19.04,1.86.05,1.93-.02.05-.04.42-1.18.44-1.28.07-.48-.81-1.78-.54-2.47-6.85.93-10.28-8.17-4.34-11.82,4.84-2.98,10.74,1.27,9.64,6.76.42-.19,1.86.61,2.04.57.11-.02.24-.24.4-.31.46-.2.95-.35,1.43-.52v-2.09c-.51-.22-1.37-.36-1.68-.85-.21-.34-.24-.88-.4-1.25s-.79-1.39-.82-1.65c-.08-.57.68-1.21.57-1.83-.02-.08-1.13-1.19-1.2-1.23ZM20.49,17.5c.14-.13.53-1.24.8-1.61.77-1.04,1.85-1.61,3.06-2,1.2-4.73-4.23-8.39-8.12-5.3s-1.28,9.61,3.77,9.06c.16-.02.38-.04.5-.15ZM22.68,21.37c3.23,3.31,8.47-1.33,5.43-4.9-3.28-3.86-8.86,1.4-5.43,4.9Z"/>
  <path class="cls-1" d="M10.4,31.29c2.06.71,3.63,2.47,4.2,4.57.28,1.01.6,1.81-.73,1.91-3.86.3-8.11-.24-12.01,0-1.22-.04-.89-1.02-.67-1.86.52-2.05,2.23-4.01,4.27-4.62-3.35-2.98-.15-8.33,4.03-6.56,2.65,1.12,2.92,4.67.91,6.56ZM7.67,25.67c-2.1.26-3.06,2.79-1.57,4.33,2.08,2.15,5.42-.39,3.99-3.05-.42-.78-1.54-1.39-2.43-1.29ZM13.46,36.47c-1.55-5.76-9.6-5.84-11.06,0h11.06Z"/>
  <path class="cls-1" d="M33.23,31.29c2.05.61,3.81,2.64,4.3,4.71.2.83.49,1.73-.7,1.77-3.9-.2-8.03.25-11.9,0-1.48-.09-1.15-.86-.82-2.01.59-2.06,2.15-3.76,4.18-4.47-2.07-1.98-1.71-5.55,1.08-6.62,4.14-1.59,7.14,3.73,3.86,6.62ZM30.62,25.67c-2.75.27-3.24,4.06-.68,4.97,2.13.76,4.06-1.45,3.14-3.5-.38-.85-1.55-1.57-2.47-1.48ZM36.29,36.47c-1.45-5.85-9.52-5.76-11.06,0h11.06Z"/>
  <path class="cls-1" d="M13.43,30.38l11.63-.03c1.04.09,1.09,1.29,0,1.42-3.53.41-7.81-.31-11.42,0-.91,0-1.09-1.19-.21-1.39Z"/>
  <path class="cls-1" d="M32.91,23.85c-.39-.39,0-9.32-.15-10.56-.7.09-1.67-.06-1.39-.98.13-.44,2.03-.41,2.37-.3.2.07.27.33.31.52v10.93c-.07.49-.8.73-1.14.39Z"/>
  <path class="cls-1" d="M6.05,13.29v10.41c0,.28-1.12.71-1.28-.48-.44-3.13.3-7.22,0-10.45.09-.44.14-.71.63-.78.46-.06,1.73-.09,2,.24.59.73-.69,1.29-1.35,1.06Z"/>
  <path class="cls-1" d="M21.11,12.47c-.29-1.44.75-1.06.83-1.37.09-.37-.11-1.01-.53-.99-.26.01-2.43,1.22-2.55,1.39-.31.47,1.19,1.48.36,1.97-.71.42-1.03-.33-1.41-.65-.08-.66-.54-1.22-.05-2,.26-.42,2.71-1.92,3.18-2,1.59-.25,2.69,1.24,2.24,2.71-.2.63-1.41,1.42-2.07.94Z"/>
  <path class="cls-1" d="M21.11,12.47c.16.81.47,1.12-.12,1.94-.31.44-2.83,1.9-3.36,1.94-1.96.15-3.02-2.85-.91-3.74.51-.21.67-.14,1.09.2.12,1.03-.84.97-.93,1.25-.08.24.23.98.52.99.14,0,2.46-1.26,2.54-1.38.42-.62-1.22-1.42-.29-2.02.83-.54,1.03.5,1.46.81Z"/>
  <path class="cls-1" d="M24.33,20.31c-.14-.12-1.35-1.4-1.4-1.49-.15-.34.14-.88.5-.92.64-.06,1.18,1.08,1.49,1.03.54-.35,1.63-1.94,2.25-1.88.53.05.63.67.4,1.11-.12.22-1.83,1.93-2.1,2.14-.46.35-.66.42-1.14.01Z"/>
</svg>