<?xml version="1.0" encoding="UTF-8"?>
<svg id="Layer_1" data-name="Layer 1" xmlns="http://www.w3.org/2000/svg" viewBox="0 0 37.81 39">
  <defs>
    <style>
      .cls-1 {
        fill: #00ec84;
      }
    </style>
  </defs>
  <path class="cls-1" d="M20.57,15.4c-.29.56-.89,3.26-1.31,3.46-.21.1-.5.1-.71,0-.42-.21-1.02-2.9-1.31-3.46l-5.23-.02-.71-.59-.07-12.69c.06-.51.48-.89,1-.89h13.46c.37,0,.57.37.82.6l.04,12.89c-.03.1-.41.51-.5.56-.76.43-4.38-.11-5.48.13ZM25.39,2.41h-12.98v11.8h5.6c.29,0,.63,1.35.74,1.63.05.13-.04.34.21.26.1-.03.47-1.89.83-1.89h5.6V2.41Z"/>
  <path class="cls-1" d="M18.05,21.31c4.01-.68,6.03,3.93,2.98,6.4.72.44,1.45.6,2.07,1.24.38.39.99,1.45,1.09,1.98.17.94.17,5.35.03,6.35-.03.24-.07.41-.32.5l-10.07-.03-.21-.26v-6.56c.35-1.06.84-1.95,1.83-2.54.44-.26.94-.36,1.33-.67-2.43-1.56-1.62-5.92,1.27-6.4ZM18.86,22.51c-3.02.06-2.91,4.69.08,4.63,3.02-.06,2.91-4.69-.08-4.63ZM23.03,36.62v-4.78c0-.82-.74-2.02-1.47-2.42-1.3-.72-4.47-.7-5.66.24-.53.42-1.12,1.53-1.12,2.18v4.78h8.26Z"/>
  <path class="cls-1" d="M9.42,23.69c1.28,1.34,1.08,3.45-.31,4.62,1.27.53,2.26,1.27,2.66,2.65v6.03s-.47.24-.47.24l-8.68-.06c-.2-.11-.21-.27-.24-.47-.12-.94-.12-4.87.06-5.73.27-1.31,1.51-2.17,2.66-2.65-3.41-2.94,1.29-7.81,4.33-4.62ZM8.48,27.15c1.5-1.51-.66-4.24-2.56-2.74s.69,4.62,2.56,2.74ZM10.65,36.03v-4.19c0-.59-.58-1.53-1.1-1.85-1.09-.67-4.07-.68-5.1.14-.38.3-.89,1.25-.89,1.71v4.19h7.08Z"/>
  <path class="cls-1" d="M33.02,23.69c1.28,1.34,1.08,3.45-.31,4.62,1.27.53,2.26,1.27,2.66,2.65v6.03s-.47.24-.47.24l-8.68-.06c-.2-.11-.21-.27-.24-.47-.12-.94-.12-4.87.06-5.73.27-1.31,1.51-2.17,2.66-2.65-3.41-2.94,1.29-7.81,4.33-4.62ZM32.08,27.15c1.5-1.51-.66-4.24-2.56-2.74s.69,4.62,2.56,2.74ZM34.24,36.03v-4.19c0-.59-.58-1.53-1.1-1.85-1.09-.67-4.07-.68-5.1.14-.38.3-.89,1.25-.89,1.71v4.19h7.08Z"/>
  <path class="cls-1" d="M9.47,5.36v1.18H1.8v10.62h4.66c.2,0,.49,1.15.59,1.18.29.08.4-1.06.71-1.18h4.66v1.18h-3.89c-.2.47-.7,2.2-1.14,2.34-1.09.34-1.29-1.64-1.71-2.32-.31-.19-3.55.12-4.28-.02-.3-.06-.5-.4-.71-.59l-.07-11.51c-.07-.25.51-.88.65-.88h8.2Z"/>
  <path class="cls-1" d="M36.54,5.36c.1.03.73.67.66.88l-.07,11.51c-.21.19-.41.53-.71.59-.73.14-3.98-.17-4.28.02-.41.67-.62,2.65-1.71,2.32-.44-.14-.95-1.87-1.14-2.34h-3.89v-1.18h4.66c.2,0,.49,1.15.59,1.18.29.08.4-1.06.71-1.18h4.66V6.54h-7.67v-1.18h8.2Z"/>
  <path class="cls-1" d="M29.61,8.92c.28-.06.88-.07,1.15-.02.31.06.56.42.73.45.15.02.55-.37.83-.43,2.13-.45,3.19,1.73,2.14,3.43-.35.57-1.98,2.19-2.57,2.39-.65.21-1.58-.58-2.07-1.01-.84-.75-1.71-1.8-1.6-3.01.07-.72.63-1.65,1.38-1.8ZM32.28,10.47c-.22.18-.29.61-.8.55-.47-.05-1.04-1.46-1.72-.65-.87,1.02.96,2.46,1.77,2.96.75-.31,2.39-1.85,1.99-2.69-.29-.6-.77-.55-1.23-.17Z"/>
  <path class="cls-1" d="M8.88,11.49c.07,4.07-5.97,4.06-5.9,0,1.57-.14,1.01.09,1.48.94.6,1.08,2.22,1.11,2.88.07.52-.81-.08-1.19,1.53-1Z"/>
  <rect class="cls-1" x="3.8" y="9.13" width="1.3" height="1.3"/>
  <rect class="cls-1" x="6.75" y="9.13" width="1.3" height="1.3"/>
  <path class="cls-1" d="M21.62,7.13c1.87-.2,2.11.82,2,2.42-.04.71-.21,2.21-.78,2.64-.25.18-.5.23-.8.26-.79.08-2.78.1-3.55,0-.31-.04-.62-.34-.7-.33-.1,0-.19.22-.3.27-.27.11-2.39.12-2.78.07s-.48-.15-.53-.53c-.13-.98-.1-3.71,0-4.73.02-.2-.01-.39.17-.54s2.61-.17,2.96-.1c.61.12.15.75.78.54,1.2-.41.57-3.2,2.77-2.9,1.77.24.64,2.83.76,2.95ZM22.15,8.31c-.27-.08-1.43,0-1.83,0-.03,0-.24-.55-.24-.64,0-.31.38-1.48.47-1.9.04-.16.27-.32-.05-.29-.49.88-.65,2.47-1.83,2.78-.26.07-.91.02-.95.05-.08.08-.06,2.26.01,2.35.03.03.3.04.42.11.22.12.52.42.72.47.28.07,2.98.07,3.11-.02.2-.4.56-2.78.17-2.9ZM16.54,11.26v-3.36c0-.26-1.18-.26-1.18,0v3.36h1.18Z"/>
</svg>