<?xml version="1.0" encoding="UTF-8"?>
<svg id="Layer_1" data-name="Layer 1" xmlns="http://www.w3.org/2000/svg" viewBox="0 0 38.26 39">
  <defs>
    <style>
      .cls-1 {
        fill: #00ec84;
      }
    </style>
  </defs>
  <path class="cls-1" d="M23.71,8.99c.08-.46.44-.73.9-.78.78-.09,2.7-.09,3.49,0,.25.03.73.12.84.36l.07,11.71c1.55,2.22,2.33,4.7,1.49,7.39-.11.35-.7,1.38-.64,1.6.02.08,1.09,1.18,1.19,1.22.31.14.67.02.99.09.29.06,4.06,3.64,4.35,4.05.35.49.41,1.02.11,1.56-.08.15-1.73,1.82-1.85,1.87-.61.28-1.21.02-1.68-.36-.57-.45-3.25-3.02-3.59-3.52-.49-.71-.21-.98-.43-1.47-.04-.08-1.13-1.18-1.22-1.19-.52.32-1.04.67-1.61.89-5.62,2.2-11.39-2.58-10.3-8.5.14-.75.62-1.52.69-2.19.32-2.88-.26-6.29.03-9.22.15-.46.3-.53.75-.57.71-.07,3.35-.11,3.97,0,.2.04.54.38.54.54v5.47l1.92-.12v-8.83ZM27.67,9.53h-2.52v8.53c.92.17,1.69.71,2.52,1.08v-9.61ZM20.46,13.25h-2.64v6.85c.77-.79,1.72-1.28,2.64-1.86v-4.99ZM22.48,19.18c-7.72.82-6.99,12.87,1.16,12.46s7.48-13.37-1.16-12.46ZM31.75,31.88l-.24.05-1.2,1.32,3.76,3.54,1.28-1.25-3.61-3.66Z"/>
  <path class="cls-1" d="M28.69.88c.07.02.25.23.27.32.12.39-.27,2.88-.41,3.38s-.31.78-.92.6c-.74-.23-.2-1.39-.26-1.9-6.67,5.74-14.55,10.53-22.85,13.55-.65.24-3.35,1.51-2.89-.12.14-.49,2.1-.98,2.65-1.2,8.04-3.21,15.58-7.36,22.07-13.12-.42-.17-.93.04-1.36-.08-.5-.15-.63-.89-.15-1.18.09-.06.99-.23,1.09-.23.6,0,2.33-.12,2.76,0Z"/>
  <path class="cls-1" d="M14.31,16.17c.47.4-.03,10.85.13,12.26-.09.26-.27.3-.51.33-1.29.17-2.98-.12-4.31-.03l-.27-.22-.04-12.05c.14-.31.44-.41.75-.45.52-.06,4-.05,4.24.15ZM13.13,17.34h-2.52v10.09h2.52v-10.09Z"/>
  <path class="cls-1" d="M7.1,28.6c-.13.13-.44.14-.63.15-.53.04-3.89.06-4.15-.06-.28-.13-.34-.56-.37-.84-.15-1.64-.18-5.5,0-7.1.03-.24.13-.61.36-.72.24-.12,4.31-.11,4.56,0,.11.05.22.2.3.3,0,1.01.26,7.91-.09,8.26ZM5.93,21.3h-2.64v6.13h2.64v-6.13Z"/>
  <path class="cls-1" d="M22.6,19.77c7.07-.84,8.68,9.73,1.86,11.11-7.72,1.56-9.47-10.2-1.86-11.11ZM22.72,21.09c-2.77.35-4.44,3.22-3.48,5.82,1.13,3.07,5.26,3.74,7.35,1.18,2.46-3.02-.11-7.47-3.87-6.99Z"/>
</svg>