<?xml version="1.0" encoding="UTF-8"?>
<svg id="Layer_1" data-name="Layer 1" xmlns="http://www.w3.org/2000/svg" viewBox="0 0 42.75 39">
  <defs>
    <style>
      .cls-1 {
        fill: #00ec84;
      }
    </style>
  </defs>
  <path class="cls-1" d="M13.29,37.36c-.44-.12-.31-1.91-.2-2.32.08-.32.32-.67.59-.86.22-.16.65-.25.67-.28.06-.08-.42-1.13.33-1.96.18-.19.74-.48.76-.52.08-.14,0-.82.05-1.12.08-.51.5-.84.53-1.3-.33.02-1.36-.77-1.5-.76-.42.03-1.67,1.74-2.77,1.64-.61-.06-2.07-1.44-2.41-1.95-.31-.45-.39-.93-.22-1.44.22-.66,1.12-1.37,1.39-1.96.06-.12.09-.22.04-.36-.74-1.19-1.27-2.49-1.57-3.85-.96-.37-2.74-.08-3.31-1.1-.37-.66-.36-2.85.05-3.49.62-.98,2.34-.64,3.29-1.09.12-.48.22-1.03.39-1.48s1.16-2.25,1.17-2.41c.02-.43-1.24-1.61-1.45-2.23-.14-.43-.12-.84.08-1.24.1-.21,1.6-1.73,1.81-1.87,1.41-.87,2.37.71,3.51,1.28,1.3-.58,2.55-1.36,3.99-1.56.54-1.1-.02-3.31,1.69-3.47.53-.05,2.51-.06,2.89.13,1.03.53.73,2.36,1.1,3.31.8.16,1.56.44,2.31.75.41.17,1.25.74,1.54.81.16.04.21.03.36-.04.59-.27,1.3-1.17,1.96-1.39.52-.17.99-.1,1.44.22.2.14,1.55,1.49,1.67,1.68s.24.54.26.75c.09,1.13-1.59,2.3-1.54,2.86.01.16.7,1.3.84,1.63.3.73.57,1.48.73,2.26,1.13.5,3,0,3.46,1.48.2.66.22,2.49-.12,3.1-.56,1.02-2.35.73-3.31,1.1-.18.79-.44,1.56-.75,2.31-.17.41-.74,1.25-.81,1.54-.04.16-.03.21.04.36.25.56,1.12,1.27,1.36,1.88.2.5.15,1.01-.14,1.47-.3.48-1.89,1.97-2.46,2.01-1.08.07-2.4-1.61-2.77-1.64-.14-.01-1.17.78-1.5.76.03.47.44.8.53,1.3.05.3-.03.98.05,1.12.02.04.58.33.76.52.75.82.27,1.87.33,1.96.02.03.45.11.67.28.26.19.51.54.59.86.09.35.23,2.32-.2,2.32H13.29ZM25.39,26.44c-.06.08.56,1.66.72,1.67.51-.23,1.64-1.14,2.12-1.12.67.02,1.78,1.4,2.41,1.62.18.07.25.09.44,0,.15-.07,1.45-1.43,1.46-1.57-.13-.67-1.68-2.1-1.69-2.67,0-.3,1.1-2.12,1.32-2.71s.43-1.87.65-2.25c.28-.49,3.09-.33,3.27-.86.11-.34.13-2.23-.28-2.36-.55-.16-2.64-.21-2.94-.52-.29-.99-.52-2.01-.95-2.96-.28-.63-1.22-1.75-1-2.34s1.27-1.55,1.6-2.21c.05-.13.02-.24-.04-.36-.07-.16-1.43-1.45-1.57-1.46-.51-.05-2.04,1.68-2.67,1.69-.41,0-1.24-.67-1.69-.88s-1.03-.46-1.49-.62-1.85-.31-1.98-.7c-.25-.76-.16-1.99-.38-2.74-.03-.1-.1-.2-.2-.25-.26-.12-2.18-.12-2.35.1-.28.37-.23,2.78-.59,3.09-.13.11-1.96.55-2.4.72-.4.15-.85.36-1.23.55-.36.18-.83.63-1.2.71-.79.15-1.92-1.35-2.6-1.59-.18-.07-.25-.09-.44,0-.15.07-1.45,1.43-1.46,1.57-.05.51,1.68,2.04,1.69,2.67,0,.43-.64,1.19-.85,1.62-.52,1.06-.87,2.19-1.11,3.35-.28.47-3.02.35-3.23.78-.11.23-.11,2.13.05,2.29.36.36,2.88.27,3.18.73.14.21.25,1.08.36,1.42.16.49.32,1,.54,1.47.28.63,1.21,1.74,1,2.34s-1.29,1.58-1.6,2.21c-.05.13-.02.24.04.36.1.21,1.43,1.48,1.67,1.46.5-.04,1.86-1.6,2.47-1.67s1.62.88,2.22,1.11c.16,0,.79-1.58.72-1.67-6.01-2.58-7.72-10.34-3.45-15.34.42-.49,2.08-2.07,2.64-2.16.41-.07.79.4.68.79-.05.17-1.84,1.45-2.18,1.79-2.91,3.04-3.15,8.02-.53,11.33.5.63,2.27,2.25,3.01,2.46.23.07.14-.06.16-.17.08-.32.21-2.26.1-2.39-.08-.09-.87.01-.87-.62s.82-.56.88-.62c.03-.03.03-.74.01-.82-.02-.07-.83-.34-1.11-.81-.42-.71-.08-1.74-.14-1.81-.02-.03-.4-.14-.61-.34-.23-.23-.44-.64-.49-.96-.09-.65-.1-2.92,0-3.55.17-1.05,1.8-.94,2.62-.85,1.4.16.79,1.97.95,2.12.03.03.34-.02.45,0-.27-2.12.95-2.33,2.74-2.12,1.45.17.94,2.01,1.06,2.12.03.03.34-.02.45,0-.24-2.14.64-2.3,2.52-2.12.51.05.96.3,1.05.85.1.63.09,2.91,0,3.55-.05.32-.26.74-.49.96-.21.2-.59.31-.61.34-.06.07.28,1.1-.14,1.81-.28.47-1.09.74-1.11.81-.02.08-.02.79.01.82.06.06.88-.05.88.62s-.85.54-.89.68c-.06.21.04,2.4.12,2.5,2.1-.89,3.98-3.05,4.63-5.24,1.85-6.32-3.35-12.06-9.8-11.14-.57.08-1.93.82-1.86-.29.03-.58.95-.72,1.43-.81,7.79-1.46,14.03,6.21,10.98,13.54-.91,2.18-2.83,4.2-5.04,5.06ZM16.58,13.5v3.07s.22.36.27.4c.41.3,3.66,0,4.48.1.77.1.85,1.04.08,1.21-.81.18-2.93-.19-3.49.08s-.41,1.1.38,1.18c2.02.2,4.4-.15,6.45-.03.56-.25.49-1.09-.09-1.2-.53-.1-2.19.27-1.67-.89.36-.81,3.18.19,3.18-.84v-3.07h-1.23c.09,1.25-.02,2.24-1.5,2.24s-1.45-1.09-1.39-2.24h-1.34c.08,1.15.03,2.24-1.39,2.24s-1.57-.99-1.5-2.24h-1.23ZM23.72,20.75h-4.68v.78h4.68v-.78ZM23.72,22.75h-4.68c.05,1.84-.28,3.69-1.04,5.37-.49,1.09-1.47,1.99-1.41,3.21h1.95c.15,0,.46.35.48.53.19,1.22-2.69.45-3.33.76-.45.21-.4.98.11,1.12,3.74.06,7.52.13,11.24-.03.5-.29.43-.85-.05-1.12l-6.54-.05c-.82-.19-.46-1.2-.02-1.2h5.74c.05-1.22-.93-2.13-1.41-3.21-.76-1.68-1.09-3.53-1.04-5.37ZM28.63,36.25c.07-.62-.05-1.21-.73-1.33-4.43.04-8.88-.11-13.29.08-.5.26-.51.75-.47,1.25h14.5Z"/>
</svg>