<?xml version="1.0" encoding="UTF-8"?>
<svg id="Layer_1" data-name="Layer 1" xmlns="http://www.w3.org/2000/svg" viewBox="0 0 46.72 39">
  <defs>
    <style>
      .cls-1 {
        fill: #00ec84;
      }
    </style>
  </defs>
  <path class="cls-1" d="M42.07,34.04c-.85,1.03-1.97,2.13-3.38,1.48-.44-.2-1.1-1.02-1.44-.94-1.42.32-.49,1.38-1.2,2.45-.79,1.2-4.19,1.18-5.09.18-.72-.8-.23-1.94-.43-2.25-.03-.04-.88-.4-.93-.41-.51-.1-1.13,1.39-2.46,1.23-.78-.09-2.08-1.41-2.6-2.02-.16-.19-.26-.6-.29-.62-.11-.08-2.23.51-2.71.55-11.82.93-19.8-11.75-13.3-21.81,5.57-8.63,18.4-8.5,23.86.23.27.43,1.24,2.6,1.37,2.68.62.37,1.68-.43,2.51.7.57.78.28,1.22.42,1.96.06.31.9.67,1.16.61.31-.08.75-.89,1.21-1.04.35-.11,1.09-.11,1.44-.03.33.08,2.38,2.06,2.51,2.38.15.38.17,1.15.08,1.54-.16.69-1.16.91-1.03,1.64.22,1.24.93.69,1.8.87,1.92.38,1.94,4.41.73,5.41-.87.71-1.95.1-2.34.73-.74,1.21.72,1.31.87,2.4s-.15,1.36-.76,2.11ZM31.64,14.95c.31-.53-1.57-3.11-2-3.6-6.09-7.08-17.76-5.18-21.21,3.49-3.49,8.79,3.33,17.94,12.7,17.3,1.35-.09,3.2-.4,3.99-1.6.14-.21-.16-1.18-.28-1.27-.46-.33-1.77.4-2.64-.99-.41-.66-.39-2.25-.31-3.05.08-.86.74-1.74,1.62-1.87.46-.07,1.18.18,1.43-.24.59-.98-.03-.97-.46-1.59-.85-1.24-.54-1.93.34-2.99s1.93-1.98,3.36-1.54c.46.14.9.96,1.21,1.04.26.07,1.1-.3,1.16-.61.18-.94-.25-1.15.55-2.1.15-.18.52-.33.54-.37ZM32.08,16.37v2.02c0,.09-.26.4-.37.47s-2.24.99-2.37,1c-.33.02-1.11-.71-1.39-.97-.25-.23-.08-.55-.68-.42-.29.06-1.63,1.39-1.69,1.66-.12.55,1.5,1.39,1.44,2.01-.01.14-.99,2.44-1.09,2.53-.53.52-2.14-.13-2.44.49-.23.47-.05,1.96.07,2.51h2.02c.1,0,.39.25.46.38.09.16.96,2.24.97,2.37.06.67-1.49,1.26-1.37,2.06.04.26,1.4,1.63,1.67,1.69.51.11,1.34-1.35,1.92-1.44.48.34,2.84.93,2.84,1.44v2.02c.55.13,2.05.3,2.51.07.61-.3.01-1.88.4-2.39.09-.11,2.46-1.13,2.62-1.14.62-.06,1.46,1.56,2.01,1.44.25-.06,1.65-1.45,1.67-1.69.06-.71-1.35-1.22-1.36-1.97,0-.13.8-2.2.9-2.38.57-.98,2.4.02,2.65-.83.09-.32.08-1.99-.1-2.22-.38-.48-1.8.09-2.38-.41-.1-.08-1.02-2.12-1.06-2.3-.22-.89,1.43-1.57,1.43-2.16,0-.28-1.42-1.71-1.71-1.75-.83-.12-1.38,1.5-2.19,1.38-.14-.02-2.41-1.04-2.49-1.15-.39-.55.18-1.93-.35-2.3-.33-.23-2.45-.21-2.57-.01Z"/>
  <path class="cls-1" d="M5.84,10.51c-3.44,5.01-3.51,12.01-.61,17.28,2.05,3.71,5.59,6.66,9.65,7.93.81.25,3.09.42,3.09,1.37,0,1.2-1.83.59-2.5.42C3.58,34.56-2.06,20.6,4.17,10.09c-.42-.11-.89.32-1.26.22-.58-.15-.78-.93-.35-1.35.13-.13,2.66-1.02,2.97-1.07.6-.1.89-.13,1.16.45.18.39,1.01,2.92.97,3.21-.03.2-.25.49-.43.56-.97.44-1.31-.9-1.39-1.6Z"/>
  <path class="cls-1" d="M36.4,10.51c.12-.43.31-1.38.8-1.51s.99.28,1.01.76c.01.25-.91,2.77-1.09,3.09-.22.38-.42.66-.9.58-.29-.05-2.7-.95-2.95-1.11-.52-.34-.65-.8-.16-1.24s.82-.11,1.37.03c.11.03.35.25.24-.1-.2-.62-1.65-2.39-2.15-2.94C28.47,3.5,21.67,1.61,15.72,3.16c-.73.19-2.3,1-2.85,1.03-.76.04-1.14-.7-.61-1.29s3.69-1.41,4.57-1.57c6.39-1.11,13.02,1.21,17.27,6.1.84.97,1.46,2.14,2.3,3.07Z"/>
  <path class="cls-1" d="M19.38,19.16v-5.79c0-.35,1.28-.71,1.51.31l-.04,6.18c-.16.22-.37.38-.58.54-.35.26-3.35,2.01-3.64,2.09-.92.25-1.53-.64-.78-1.34s2.64-1.37,3.54-1.97Z"/>
  <path class="cls-1" d="M12.37,19.06c.49.52.05,1.2-.62,1.33-.86.16-3.78.32-3.04-1.22.3-.63,3.23-.56,3.66-.1Z"/>
  <path class="cls-1" d="M20.03,8.03c1.14-.1.96,2.25.89,2.98-.12,1.32-1.37,1.31-1.54.41-.08-.4-.05-2.83.13-3.08.08-.11.39-.3.52-.31Z"/>
  <path class="cls-1" d="M19.9,27.14c.6-.16.96.35,1.02.88.05.43.07,2.14-.03,2.48-.18.64-1.39.85-1.51-.1-.06-.46-.07-2.23,0-2.65.04-.23.3-.55.52-.61Z"/>
  <path class="cls-1" d="M26.05,9.71c.72.72-1.18,3.64-1.96,2.02-.29-.61,1.06-2.92,1.96-2.02Z"/>
  <path class="cls-1" d="M10.55,13.47c.54-.16,2.17.73,2.13,1.43-.13,2.04-4.13-.86-2.13-1.43Z"/>
  <path class="cls-1" d="M11.81,23.51c.49-.08.9.4.87.87-.04.61-1.67,1.52-2.23,1.26-1.35-.61.63-2.02,1.36-2.14Z"/>
  <path class="cls-1" d="M15.29,9.72c.48.39,1.4,2.31.24,2.48-.73.1-1.77-1.7-1.53-2.23.21-.46.9-.56,1.29-.24Z"/>
  <path class="cls-1" d="M29.95,13.62c.23.23.23.95,0,1.19-.27.27-1.63.95-2.02.77-1.56-.72,1.32-2.66,2.02-1.96Z"/>
  <path class="cls-1" d="M15.29,29.45c-.39.32-1.08.22-1.29-.24-.24-.53.73-2.26,1.38-2.23,1.32.06.43,2.04-.1,2.47Z"/>
  <path class="cls-1" d="M32.89,21.02c7.1-.66,7.85,9.73,1.34,10.55-7.18.91-8.26-9.91-1.34-10.55ZM36.08,29.02c3.56-3.38-1.62-8.83-5.18-5.53s1.54,8.99,5.18,5.53Z"/>
</svg>