<?xml version="1.0" encoding="UTF-8"?>
<svg id="Layer_1" data-name="Layer 1" xmlns="http://www.w3.org/2000/svg" viewBox="0 0 39.09 39">
  <defs>
    <style>
      .cls-1 {
        fill: #00ec84;
      }
    </style>
  </defs>
  <path class="cls-1" d="M18,29.06c-.62-.13-.64-1.16-.84-1.29-.05-.03-1.08-.42-1.14-.42-.34,0-.72.6-1.41.2-.11-.07-1.18-1.09-1.26-1.2-.22-.32-.27-.55-.08-.9-1.09.02-3.28,2.15-3.5.17-.16-1.46.17-3.13-.06-4.61l-6.76-6.78c-.48-.27-1.35.06-1.47-.86-.1-.73-.26-2.93.88-2.75l20.63.03c.22.13.5.36.55.62.05.28.05,2.06-.02,2.31-.19.65-1.06.44-1.44.66-.24.13-1.56,1.48-1.33,1.75.04.05,1.15.43,1.22.43.45,0,.69-.69,1.4-.19.17.12,1.41,1.38,1.44,1.48.14.48-.33.86-.32,1.26.01.58.67,1.46,1.33,1.44.28,0,3.02-1.8,3.48-2.11,2.06-1.4,4.07-2.99,5.91-4.64-.35-.04-.78.06-1.11,0-.51-.1-.69-.82-.26-1.13.2-.14,2.67-.31,3.06-.27.24.02.64.04.73.32.14.43-.13,2.1-.23,2.65s-.18,1.33-.95,1.1-.18-1.12-.38-1.61c-3.07,2.59-6.32,4.98-9.81,6.99-.36.35,0,1.04-.29,1.46-.21.3-.92.32-1.05.49-.04.05-.44,1.09-.44,1.15-.01.53.67,1,.1,1.75l-.05,10.8c-.16.17-.36.21-.58.23-.46.05-3.54.05-3.79-.06-.06-.03-.35-.32-.35-.35v-8.11c-.53-.08-1.32.1-1.81,0ZM22.26,11.91H2.66v.93h19.6v-.93ZM20.39,14.13H4.64l6,5.96c.29.17,2.11.19,2.35,0,.11-.08.47-.98.48-1.14.02-.41-.44-.76-.3-1.24.04-.12,1.41-1.49,1.57-1.59.55-.3.95.33,1.33.28.06,0,1.09-.4,1.13-.44.14-.13.18-.93.49-1.08.41-.21,1.51.04,2.02-.06l.67-.7ZM19.44,16.01s-.84-.04-.9,0-.16.79-.54,1.04c-.21.13-1.87.72-2.09.69-.38-.05-.48-.39-.95-.12-.81.47.03.86-.05,1.46-.02.15-.88,1.97-.99,2.05-.34.25-.71.07-.77.64-.1.91.64.55.99,1.12.06.09.72,1.62.74,1.71.15.58-.46.88-.22,1.26.5.77.91.1,1.57.18.22.03,1.88.78,1.99.93.19.27.09.62.47.7.9.18.84-.25,1.14-.9.73-.06,1.56-.8,2.23-.73.38.04.55.35.95.12.81-.47-.02-.86.06-1.46.01-.11.81-1.99.9-2.06.27-.2.77-.12.85-.52.2-1-.62-.67-.99-1.23-.05-.08-.68-1.52-.71-1.63-.2-.75.57-1,.01-1.52s-.75.08-1.39,0c-.09-.01-1.59-.59-1.69-.65-.47-.26-.54-1.03-.6-1.09ZM11.06,21.48v3.38c.27-.06,2.11-.77,2.11-.88,0-.62-.97-.41-1.21-.89-.2-.42-.03-1.14-.08-1.61h-.82ZM23.31,27.66c-.48.17-.98-.24-1.34-.24-.05,0-.88.2-.88.24v8.63h2.22v-8.63Z"/>
  <path class="cls-1" d="M15.45,6.12c.08.08.51.74.62.66.24-.67.97-1.04,1.51-1.46-1.76-2.26,1.1-5.18,3.39-3.39,1.06.83,1.22,2.37.35,3.39.78.51,1.5,1.09,1.89,1.96.23.51.69,1.89-.1,2.04l-20.87.03c-1.29.04-.7-1.59-.31-2.3.42-.76,1.06-1.26,1.77-1.73C1.91,3.18,4.67.23,6.96,1.83c.86.6,1.14,1.75.89,2.74-.05.19-.4.68-.4.76,0,.11,1.51,1.02,1.56,1.45.09-.4,1.54-1.33,1.55-1.45,0-.07-.37-.69-.41-.96-.36-2.1,1.58-3.61,3.5-2.68,1.34.65,1.73,2.58.68,3.64.37.27.79.49,1.12.8ZM6.36,2.96c-.95-.97-2.79.64-1.55,1.72,1.05.91,2.54-.7,1.55-1.72ZM12.19,2.71c-1,.22-1.07,1.84-.09,2.14,1.92.6,2.04-2.56.09-2.14ZM19.19,2.71c-1.32.29-.96,2.58.65,2.16,1.22-.32.88-2.5-.65-2.16ZM8.14,8.06c-.76-2.46-4.42-2.4-5.25,0h5.25ZM15.14,8.06c-.8-2.44-4.45-2.44-5.25,0h5.25ZM16.77,8.06h5.37c-1.01-2.46-4.33-2.44-5.37,0Z"/>
  <path class="cls-1" d="M33.02,19.17c.09-.11.55-.25.72-.27.7-.08,2.45-.08,3.16,0,.31.04.6.14.73.43l-.04,18c-.06.1-.14.18-.26.21-.28.08-3.58.09-3.94.02-.29-.06-.42-.29-.5-.55.23-5.56-.39-11.49-.03-17.01.01-.21.03-.69.15-.84ZM36.49,20.31h-2.33v15.98h2.33v-15.98Z"/>
  <path class="cls-1" d="M30.98,22.44c.53.52-.09,13.12.13,14.83-.08.23-.4.29-.62.31-.52.06-3.32.08-3.71-.03-.22-.06-.45-.37-.44-.61l.03-14.22c.14-.3.43-.4.73-.43.79-.09,2.46-.07,3.27,0,.18.01.48.02.61.15ZM29.84,23.58h-2.22v12.72h2.22v-12.72Z"/>
  <path class="cls-1" d="M32.5,2.03c6.22-.61,7.1,9.11.9,9.65s-7.3-9.02-.9-9.65ZM32.02,3.42c-3.39.57-3.6,6.23.14,6.92,5.42,1,5.8-7.92-.14-6.92Z"/>
  <path class="cls-1" d="M13.42,37.43c-.34-.33-.09-6.61-.09-7.56.08-.11.2-.21.32-.26.39-.16,2.97-.15,3.53-.09.33.03.6.06.81.36v7.35c-.08.1-.18.24-.29.29-.29.13-3.16.11-3.68.07-.18-.01-.48-.02-.61-.15ZM16.77,30.81h-2.22v5.48h2.22v-5.48Z"/>
  <path class="cls-1" d="M18.38,18.24c5.22-.66,5.67,6.72,1.24,7.31-5.14.68-5.81-6.73-1.24-7.31ZM18.49,19.52c-2.93.5-2.34,5.3,1,4.73,2.87-.49,2.34-5.3-1-4.73Z"/>
  <path class="cls-1" d="M33.61,4.29c.2.2.75.32,1,.81.34.65.07,1.31-.72,1.07-.31-.09-.39-.52-.55-.62-.17-.11-.76-.12-.88.05-.44.63.83.62,1.23.77.96.36,1.48,1.33,1.02,2.31-.26.56-.72.5-1.02.73-.27.21-.25.82-.88.76-.46-.05-.45-.59-.65-.76-.12-.1-.37-.09-.51-.19-.77-.55-1.21-2.03.08-1.83.45.07.32.45.6.68.52.43,1.5.06,1.23-.35-.05-.08-1.47-.36-1.81-.58-.76-.49-.98-1.56-.41-2.28.22-.28.63-.38.81-.59.29-.31.35-1.05,1.05-.57.33.23.28.49.39.6Z"/>
</svg>