<?xml version="1.0" encoding="UTF-8"?>
<svg id="Layer_1" data-name="Layer 1" xmlns="http://www.w3.org/2000/svg" viewBox="0 0 40.86 39">
  <defs>
    <style>
      .cls-1 {
        fill: #00ec84;
      }
    </style>
  </defs>
  <path class="cls-1" d="M2.93,2.77v22.42h20.79c.17-.45.44-.94.68-1.36,1.04-1.78,2.25-4.29,3.41-5.89.88-1.22,2.34.52,2.51,1.52.35,2.07-1.63,3.93-2.41,5.72h9.87V2.77H10.3c-.51,0-.96-1.14.23-1.28l27.94.06.4.3v24.28c-.12.25-.66.35-.92.35h-10.79c-.21.49-1.07,1.49-.96,1.97.06.23.73,1.4.94,1.4.08,0,.99-.71,1.26-.84,2.61-1.23,5.73.02,6.75,2.69,1.69,4.39-3.14,8.4-7.18,6.02-.59-.35-2.51-2.05-1.51-2.64.71-.42.79.29,1.09.63,1.43,1.61,3.74,2.09,5.46.58,3.15-2.77.02-7.89-3.99-6.2-1.03.43-1.79,1.79-2.92.57l-.75-1.16c-.05.46-.61.85-.58,1.33.04.71,1.8,2.27,1.13,2.94-.84.84-1.5-1.28-1.89-1.71-1.39,1.77-2.07,4.49-4.09,5.67-2.55,1.49-5.94.46-7.06-2.3-2.06-5.1,4.14-9.12,8.07-5.46.07-.44.89-1.32.89-1.68,0-.1-.92-1.69-1.01-1.74l-18.06-.05c-.26,0-.8-.1-.93-.35l-.03-24.19c.14-.3.42-.4.73-.43,1.65-.19,3.65.14,5.34.01,1.04.16.39,1.27.12,1.27H2.93ZM28.6,18.91l-4.3,7.49,1.1.63c1.23-2.28,2.77-4.42,3.77-6.8.04-.45-.15-1.1-.57-1.32ZM23.91,27.65c-.62.07-.75.93-.19,1.19,1,.45,1.27-1.3.19-1.19ZM23.6,30.06c-.39-.07-.73-.29-.99-.58-.47.49-.61,1.37-1.33,1.57-1.05.28-1.31-.45-2.06-.85-3.56-1.93-7.19,2.38-4.8,5.49,1.52,1.97,4.54,2.01,5.99-.04l3.18-5.59Z"/>
  <path class="cls-1" d="M19.4,6.28c6.32-.69,10.82,5.94,7.67,11.5s-11.35,5.08-13.82-.77c-1.98-4.68,1.06-10.18,6.15-10.73ZM20.1,7.44c-8.99.26-7.76,14.44,1.33,12.95,7.88-1.3,6.8-13.18-1.33-12.95Z"/>
  <path class="cls-1" d="M32.27,35.24c-2.02,2.01-5.47-.71-3.73-3.2,2.03-2.91,6.26.69,3.73,3.2ZM29.68,32.53c-1.24,1.13.68,3.08,1.83,1.77.96-1.1-.62-2.86-1.83-1.77Z"/>
  <path class="cls-1" d="M34.25,7.78c.4-.12,2.49-.1,2.76.21.29.34.29,2.77-.06,3.07s-2.77.29-3.07-.06c-.27-.31-.26-2.5-.07-2.85.05-.09.33-.35.44-.38Z"/>
  <path class="cls-1" d="M3.94,3.37c.28-.08,2.07-.08,2.42-.03.39.05.56.27.63.65.09.54.11,2.26-.28,2.61-.43.38-2.75.4-3.09-.17-.18-.31-.18-2.5,0-2.8.05-.09.22-.23.32-.26Z"/>
  <path class="cls-1" d="M34.14,3.37c.24-.07,2.24-.07,2.53-.02.16.03.34.15.42.28.16.27.17,2.06.11,2.45-.13.97-1.77.82-2.51.75-.51-.05-.89-.21-.97-.77-.08-.52-.16-2.53.42-2.7Z"/>
  <path class="cls-1" d="M4.06,7.79c.32-.07,1.97-.08,2.3-.02.18.03.52.32.58.46.1.24.12,2.07.06,2.38-.16.86-2.04.72-2.73.64-.51-.06-.69-.24-.75-.75-.08-.65-.21-2.53.55-2.71Z"/>
  <path class="cls-1" d="M34.25,16.73c.47-.11,2.54-.14,2.81.28.17.27.2,2.17.13,2.54-.03.18-.32.52-.46.58-.47.19-2.61.18-2.91-.34-.16-.28-.16-2.04-.1-2.44.05-.32.21-.55.54-.62Z"/>
  <path class="cls-1" d="M4.06,16.73c.44-.1,2.48-.11,2.76.21.33.38.32,2.72-.17,3.07-.33.24-2.3.27-2.67.12-.23-.09-.44-.44-.47-.69-.09-.64-.19-2.54.55-2.71Z"/>
  <path class="cls-1" d="M4.17,21.14c.53-.12,2.3-.15,2.64.33.28.39.3,2.64-.06,2.95-.34.29-2.77.29-3.07-.06-.24-.27-.25-2.2-.18-2.61.05-.27.39-.56.66-.62Z"/>
  <path class="cls-1" d="M34.37,21.14c.54-.12,2.4-.15,2.71.37.21.35.21,2.61-.13,2.91s-2.77.29-3.07-.06c-.25-.29-.24-2.05-.17-2.49.05-.35.31-.66.66-.74Z"/>
  <path class="cls-1" d="M4.41,12.2c.55-.09,2.06-.13,2.41.32.3.38.33,2.84-.17,3.08-.2.09-2.32.11-2.61.05-.17-.03-.4-.19-.46-.35-.1-.23-.11-2.32-.04-2.59.1-.34.56-.47.88-.52Z"/>
  <path class="cls-1" d="M34.61,12.2c.56-.08,2.26-.15,2.52.44.1.22.11,2.19.06,2.49-.03.17-.19.4-.35.46-.25.11-2.56.11-2.78,0-.47-.22-.43-2.28-.32-2.76s.46-.57.88-.63Z"/>
  <path class="cls-1" d="M16.95,31.02c2.6-.44,4.01,2.94,1.88,4.44-1.55,1.09-3.69.12-3.91-1.77-.14-1.15.89-2.48,2.03-2.67ZM17.39,32.21c-1.63.01-1.59,2.51,0,2.51,1.68,0,1.64-2.52,0-2.51Z"/>
  <path class="cls-1" d="M18.38,11.48v4.99c.22.06.35-.19.54-.21.49-.05.85.66.5,1.08s-2.14,1.32-2.19.23c.17-2.23-.27-4.91-.01-7.08.11-.89.65-.76,1.28-.47,1.32.6,3.2,1.81,4.49,2.6,1.35.83,2.55,1.12.65,2.32-.42.26-1.76,1.1-2.13,1.24-.65.24-1.2-.42-.82-.93.21-.29,2.1-1.09,2.1-1.27l-4.41-2.5Z"/>
</svg>