<?xml version="1.0" encoding="UTF-8"?>
<svg id="Layer_1" data-name="Layer 1" xmlns="http://www.w3.org/2000/svg" viewBox="0 0 42.15 39">
  <defs>
    <style>
      .cls-1 {
        fill: #00ec84;
      }
    </style>
  </defs>
  <path class="cls-1" d="M31.64,19.75c.66.06,1.25-.07,1.86-.27,1.45-.46,3.49-1.75,4.84-2.04.95-.2,1.76.15,1.97,1.13-.28,3.38.35,7.3,0,10.62-.11,1.02-.89,1.44-1.86,1.29-1.26-.19-3.57-1.62-4.96-2.06-.62-.2-1.21-.33-1.86-.27v3.1c0,.27-.77,1.47-1.01,1.67-.12.1-1.06.6-1.12.6h-2.96c.08,1.02,1.75,3.37,1.31,4.27-.21.42-.96.34-1.23,0l-1.74-4.04-.46-.23-11.42.03c-.42.14-1.35,4.15-2.11,4.36-2.28.64.28-3.66.38-4.38h-4.34c-.17,0-.98-.46-1.17-.62-.23-.19-.96-1.16-.96-1.38v-8.6h-2c-.27,0-.93-.59-1-.92-.11-.48-.11-3.32,0-3.8.29-1.29,1.95-.81,2.87-.98.19-.96.5-2.05,1.5-2.42.06-.08-.8-1.5-.89-1.79-.9-2.82.56-6.19,3.37-7.22,5.29-1.94,9.78,3.98,6.74,8.6h3.3l-1.44-2.48C15,5.86,19.88-.1,26.3,1.07s8.59,9.2,3.97,13.65c.41.37,1.37,1.38,1.37,1.93v3.1ZM24.32,2.45c-6.35.37-8.35,8.68-3.04,11.91l7.07-.03c5.41-3.76,2.69-12.27-4.03-11.87ZM10.14,6.99c-2.36.28-3.84,2.54-3.54,4.84.09.7.87,2.36,1.6,2.53,1.34.3,3.59-.14,5.04,0,3.36-2.6,1.15-7.87-3.1-7.37ZM7.23,15.93c-.37.08-.93.59-.93,1v14.06c.07.58.72,1.06,1.31,1.03,7.26-.08,14.55.14,21.79-.11.56-.29.67-.74.73-1.34.39-4.19-.31-8.97,0-13.23,0-.79-.47-1.47-1.31-1.45l-21.59.04ZM4.8,18.79h-1.65v2.62h1.65v-2.62ZM38.94,18.93l-5.17,2.06v5.93s5.17,2.06,5.17,2.06v-10.05ZM32.06,21.27h-.41v5.37h.41v-5.37Z"/>
  <path class="cls-1" d="M28.58,25.84c.43.43.07,1.37-.58,1.35H10.64c-1.11-.03-1.24-1.39-.14-1.53h17.36c.21.02.57.03.72.18Z"/>
  <path class="cls-1" d="M24.44,18.41c.43-.1,2.84-.11,3.27-.03.21.04.67.44.77.61.2.35.2,2.78.13,3.31-.17,1.47-2.54,1.29-3.65,1.17-.75-.09-1.36-.52-1.45-1.3-.11-.94-.25-3.5.93-3.76ZM27.24,19.89h-2.2v2.07h2.2v-2.07Z"/>
  <path class="cls-1" d="M10.23,20.17h10.46c.33,0,.87,1.38-.68,1.52-3.01.27-6.44-.21-9.5-.01-.93-.19-1.03-.97-.28-1.51Z"/>
  <path class="cls-1" d="M24.03,6.02c4.24-.73,4.87,5.25,1.17,5.85s-4.66-5.25-1.17-5.85ZM24.31,7.53c-1.45.33-1.26,3.08.62,2.84s1.53-3.33-.62-2.84Z"/>
  <path class="cls-1" d="M10.13,8.91c2.79-.58,3.85,3.17,1.61,4.22-2.7,1.27-4.51-2.4-2.25-3.9.18-.12.43-.28.64-.32ZM10.54,10.41c-.94.16-.52,1.57.23,1.5.81-.07.98-1.71-.23-1.5Z"/>
</svg>