<?xml version="1.0" encoding="UTF-8"?>
<svg id="Layer_1" data-name="Layer 1" xmlns="http://www.w3.org/2000/svg" viewBox="0 0 39.45 39">
  <defs>
    <style>
      .cls-1 {
        fill: #00ec84;
      }
    </style>
  </defs>
  <path class="cls-1" d="M25.31,7.34v-1.21c-.72-.03-2.14.3-1.78-.88.19-.62,3.27-3.03,3.77-3.83.25-.18.61-.18.86,0,.5.79,3.58,3.21,3.77,3.83.36,1.18-1.07.85-1.79.88v1.21h3.2c.71,0,2.23,1.54,2.23,2.23v12.84h-1.21v-12.11c0-.76-1-1.75-1.75-1.75h-2.47v10.85h-1.21V5.23c0-.26.66-.3.84-.36l-2-1.98-2.09,1.98c.18.06.84.1.84.36v14.77h-1.21v-11.45H4.76c-.76,0-1.75,1-1.75,1.75v2.47h-1.21v-3.19c0-.71,1.51-2.23,2.23-2.23h21.28Z"/>
  <path class="cls-1" d="M24.1,21.21h-1.21v-9.64h-2.41v13.86H4.82v-1.21h2.41v-5.12s.19-.21.24-.24c.25-.12,4.09-.11,4.34,0,.06.03.24.22.24.24v5.12h1.21v-9.34s.19-.21.24-.24c.24-.11,4.09-.12,4.34,0,.06.03.24.22.24.24v9.34h1.21v-13.56s.19-.21.24-.24c.25-.12,4.09-.11,4.34,0,.06.03.24.22.24.24v10.55ZM16.87,15.78h-2.41v8.44h2.41v-8.44ZM10.84,20h-2.41v4.22h2.41v-4.22Z"/>
  <path class="cls-1" d="M3.01,13.97v12.66h16.88v1.21H3.01c-.02.76.17,1.67.88,2.07.13.08.78.34.87.34h15.73v1.21h-4.34l-1.33,4.82h7.71l-.6-2.29,1.33-.36c.1.09.53,2.31.71,2.58.12.18,1.07.02,1.34.07v1.21h-13.26v-1.21s1.34-.07,1.34-.07l1.31-4.75H4.03c-.72,0-2.23-1.52-2.23-2.23v-15.25h1.21Z"/>
  <path class="cls-1" d="M34.74,31.66c.79.8,1.87,1.64,2.57,2.49.59.71.91,1.24.6,2.25s-1.79,1.38-2.64.94c-.66-.34-2.95-3.09-3.17-3.12-.37-.06-.97.39-1.39.52-6.27,1.96-11.84-4.3-8.94-10.15,3.56-7.19,14.61-4.26,13.79,4.26-.1,1.03-.68,1.86-.81,2.81ZM28.18,21.84c-7.8.23-7.55,12.06.2,12,7.88-.06,7.64-12.23-.2-12ZM33.83,32.67c-.12.02-.74.62-.63.83.08.16,2.39,2.45,2.61,2.59.6.39,1.16-.17.77-.77-.24-.37-2.07-2.18-2.46-2.48-.09-.07-.14-.19-.29-.17Z"/>
  <path class="cls-1" d="M34.95,4.93c-.29-.05-1.01.1-1.21-.05-.07-.05-.29-1.14-.71-1.58-.47-.49-1.59-.7-1.64-.77-.15-.21,0-.92-.05-1.21,1.96-.16,3.78,1.66,3.62,3.62Z"/>
  <rect class="cls-1" x="4.82" y="9.75" width="1.21" height="1.21"/>
  <rect class="cls-1" x="7.23" y="9.75" width="1.21" height="1.21"/>
  <rect class="cls-1" x="9.64" y="9.75" width="1.21" height="1.21"/>
  <path class="cls-1" d="M27.33,23.04c7.74-1.11,7.75,10.7,0,9.59-5.07-.73-5.07-8.86,0-9.59ZM28.17,24.25c-4.57.19-4.41,7.22.19,7.15s4.49-7.35-.19-7.15Z"/>
  <path class="cls-1" d="M28.32,25.42c-.05.31.1.98-.06,1.21-.09.13-.52.16-.73.35-.26.23-.27.7-.41.79-.23.16-.9,0-1.21.06-.17-1.3,1.11-2.58,2.41-2.41Z"/>
</svg>