<?xml version="1.0" encoding="UTF-8"?>
<svg id="Layer_1" data-name="Layer 1" xmlns="http://www.w3.org/2000/svg" viewBox="0 0 42.15 39">
  <defs>
    <style>
      .cls-1 {
        fill: #00ec84;
      }
    </style>
  </defs>
  <path class="cls-1" d="M9.41,11.05v3.05l5.02,3.19c.47.34.38.83-.05,1.16l-4.97,3.06v3.24h3.3c.26,0,.8.72.88.99.13.49.13,2.88.03,3.4-.06.28-.5.96-.78.96h-3.42v3.86h4.36c.12,0-.37-1.7.84-1.97,2.48.15,5.4-.29,7.83-.03,1.58.17,1.03,1.86,1.17,2s3.74.06,4.05,0c.36-.07.48-.83.7-1.16,1.85-2.72,6.45-.44,5.11,2.87-1.06,2.6-4.79,2.29-5.58-.34-.55.13-4.13-.14-4.28,0-.08.08.28,1.76-.94,1.99h-7.96c-1.34-.21-.82-1.99-.94-1.99h-5.29s-.44-.28-.44-.31v-4.73s-.17-.19-.19-.19h-3.36c-.26,0-.64-.67-.68-.94-.1-.72-.08-2.49-.01-3.23.04-.4.39-1.18.82-1.18h3.42v-3.05l-5.17-3.29c-.3-.28-.24-.85.04-1.13,1.75-.97,3.35-2.24,5.14-3.11v-3.11h-3.18c-.34,0-.99-.55-1.05-.94-.08-.49-.06-3.53.09-3.88s.7-.61,1.09-.66c1.55-.19,5.79-.17,7.36,0,.72.08,1.21.58,1.3,1.31.07.58.08,2.54-.03,3.09-.08.38-.67,1.09-1.03,1.09h-3.18ZM12.27,6.94h-7.1v2.74h6.91s.19-.17.19-.19v-2.55ZM8.72,15.32l-4.04,2.51,4.04,2.55,3.92-2.55-3.92-2.51ZM12.27,26.11h-7.1v2.74h7.1v-2.74ZM29.62,35.66c1.44,1.37,3.68-.71,2.27-2.21-1.49-1.58-3.7.84-2.27,2.21ZM22.23,33.33h-7.1v2.61h7.1v-2.61Z"/>
  <path class="cls-1" d="M36.44,8.04c1.69-.15,2.26,1.67,1.67,3-.46,1.04-1.31.68-1.62.99-.08.08-.69,1.56-.66,1.66.07.26.58.58.6,1.16.02.62-1.06,1.94-1.6,2.11-.66.21-1.02-.09-1.63-.19-.05,1.28-.55,2.52-1.19,3.6-.2.34-1.26,1.6-1.28,1.71-.02.12.25.66.36.73.37.22.79.01,1.3.57.56.61,2.13,3.19,2.58,4.02.42.76.76,1.41-.02,2.14-.31.3-2.44,1.62-2.82,1.66-.55.07-1.01-.03-1.4-.44-.36-.38-3-4.65-3.02-4.97-.03-.49.3-1.15-.37-1.5-.12-.06-1.78.41-2.17.45-6.33.53-11.22-4.83-9.97-11.09.73-3.66,3.96-6.63,7.66-7.1.08-.43-.38-.56-.47-.96-.06-.25-.06-.7-.02-.96.08-.49,1.13-1.5,1.61-1.63,1.06-.29,1.56.58,1.78.54.14-.02.83-.45,1.09-.54.14-.06.44-.03.48-.08.07-.07.05-1.07.64-1.54s1.95-.44,2.57-.09c.85.48.57,1.29.91,1.58.06.05,1.41.62,1.49.64.22.04.71-.77,1.76-.52.57.14,1.64,1.31,1.71,1.91.09.76-.59,1.19-.6,1.46,0,.35.7,1.17.63,1.67ZM36.79,9.43c-.11-.11-1.08.09-1.58-.84-.1-.18-.75-1.83-.77-1.97-.13-.95.96-1.57.06-2.18-.36-.24-.86.51-1.5.51-.3,0-2.23-.8-2.49-1-.66-.51-.4-.72-.58-1.29-.09-.29-.93-.28-1.11-.15-.17.12,0,.92-.68,1.44-.26.2-2.19,1-2.49,1-.62,0-1.06-.65-1.23-.62-.08.01-.67.61-.68.69-.04.23.34.55.42.79.07.19.03.61.06.63.03.03.6-.02.79.01.25.04.82.24,1,.2.12-.02.89-.68,1.16-.82,3.91-1.99,8.17,1.97,6.49,5.99-.16.38-.68.92-.68,1.25,0,.58.43,1.41.36,2.06.65.09.98.94,1.48.09.33-.57-.2-.66-.33-1.18-.15-.63.56-2.54,1-3,.49-.52,1.26-.44,1.31-.49.04-.04.03-1.07,0-1.11ZM32.44,11.29c1-2.97-1.85-5.58-4.73-4.23.72.52,1.55.86,2.24,1.43,1.02.84,1.4,1.62,2.13,2.6.11.14.13.25.35.21ZM28.83,24.12l.98-.7c-1.27-1.71-.74-1.49.26-2.73,5.62-7.03-2.47-16.15-9.92-11.79s-3,16.36,5.94,14.29c.34-.08,1.35-.55,1.53-.54.45.04,1.06,1.05,1.2,1.47ZM31.71,29.83c.11.07.24,0,.35-.05.13-.06,1.58-.98,1.67-1.07s.21-.11.21-.29c0-.3-2.4-3.59-2.69-4.17l-2.15,1.43,2.61,4.16Z"/>
  <path class="cls-1" d="M28.91,10.84c6.5,6.5-3.9,16.14-9.86,9.17-5.6-6.56,3.87-15.16,9.86-9.17ZM23.32,10.33c-3.2.41-5.18,3.81-4.29,6.84,1.03,3.53,5.44,4.96,8.37,2.71,4.29-3.3,1.54-10.28-4.08-9.56Z"/>
  <path class="cls-1" d="M27.09,14.78c-.32.53-1.21,2.08-1.7,2.35-.75.43-1.36-.69-2.08-.74-.15.02-1.35,2.27-1.7,2.56-.66.54-1.34-.14-1.05-.92.07-.2,1.96-3,2.11-3.12.78-.64,1.47.52,2.02.61.5.08,1.01-1.25,1.4-1.54-.78.08-1.42-.8-.67-1.29.23-.15,1.62-.06,1.97,0,.55.08,1.06,1.28,1.2,1.8.11.4.11.59-.26.87-.73.55-1.1-.65-1.24-.56Z"/>
</svg>