<?xml version="1.0" encoding="UTF-8"?>
<svg id="Layer_1" data-name="Layer 1" xmlns="http://www.w3.org/2000/svg" viewBox="0 0 37.81 39">
  <defs>
    <style>
      .cls-1 {
        fill: #00ec84;
      }
    </style>
  </defs>
  <g>
    <path class="cls-1" d="M11.17,2.48c.1-.49.77-1.05,1.3-1.06,4.5.33,9.61-.43,14.03,0,.88.08,1.39.58,1.53,1.44v7.37c5.75-.11,9.81,5.29,8.29,10.82-.76,2.77-3.41,5.42-6.29,5.81.05.42-.09,1.01.02,1.4.06.2.37.37.5.62.33.66.33,6.22.22,7.23-.07.63-.37,1.42-1.06,1.54-.5.09-2.31.07-2.85,0-.76-.09-1.11-.57-1.18-1.3-.15-1.57-.18-5.42,0-6.96.08-.7.59-.9.62-1.02.1-.37-.07-1.1,0-1.52-.8.02-1.53-.42-2.23-.75v6.39c0,.15-.43.65-.68.56l-12.72-.07c-.08-.07-.37-.34-.37-.37v-9.25H2.54s-.54-.3-.62-.37c-.5-.42-.64-.93-.69-1.55-.22-2.79.17-5.86.02-8.68-.07-.48.95-1.56,1.29-1.56h8.63V2.48ZM26.68,8.75V2.97s-.17-.19-.19-.19h-13.96v6.95c1.5-1.3,3.17-3.78,5.46-3.04.99.32,1.78,1.16,2.56,1.79.69-.41,1.09-1.15,1.85-1.47,1.89-.78,3.02.57,4.27,1.73ZM12.53,13.46h9c.08,0,.8-.96,1.05-1.18.98-.85,2.32-1.55,3.6-1.8-1.3-2.01-2.98-3.33-4.71-.81,0,.11,1.17,1.25,1.23,1.62.09.5-.28.99-.78.9-.44-.08-1.77-2.05-2.21-2.52-.48-.51-1.84-1.77-2.54-1.79-.52-.01-1.64.81-2.05,1.16-.49.42-2.2,2.23-2.49,2.72-.26.45-.06,1.17-.12,1.68ZM28.67,28.11v-1.92c0-.53,1.27-.59,1.64-.72,8.22-2.9,5.43-14.69-2.94-13.86-7.33.72-8.75,11.28-1.33,13.86.29.1,1.64.25,1.64.59v2.05h.99ZM11.17,12.59H2.91c-.16,0-.29.39-.32.55-.34,2.5.27,5.74,0,8.33.02.49.27.52.68.56,3.09.3,6.67-.25,9.82,0,.16.05.55-.22.55-.32v-6.89c-1.61.19-2.76-.47-2.48-2.23ZM20.6,14.83h-5.58v4.22h4.72c-.09-1.46.27-2.9.87-4.22ZM22.71,31.7v-6.52c0-.08-.95-.91-1.11-1.12-.86-1.09-1.27-2.27-1.8-3.53h-4.78c.03.89.1,1.77-.61,2.43-.09.08-.64.43-.69.43h-2.05v8.31h11.05ZM29.29,29.59h-2.23v6.7h2.23v-6.7Z"/>
    <path class="cls-1" d="M13.37,24.91l7.16-.02c.89.14.94,1.24.01,1.36h-7.2c-.71-.23-.73-1.17.02-1.34Z"/>
    <path class="cls-1" d="M13.24,28.38l7.42-.02c.77.27.71,1.22-.13,1.35-2.19-.18-4.81.26-6.94.01-.87-.1-1.08-.86-.35-1.34Z"/>
    <path class="cls-1" d="M16.72,22.05c.42-.09,2.09-.08,2.5.05.53.18.65.86.21,1.17-.22.16-2.5.18-2.84.09-.63-.18-.65-1.14.12-1.31Z"/>
    <path class="cls-1" d="M6.29,13.73c.6-.18,2.08.89,2.68,1.24.43.26,2.9,1.74,3,1.96.21.47.04.76-.32,1.04-.81.64-3.43,2.25-4.37,2.7-.74.35-1.34.4-1.45-.58-.14-1.19-.14-4.4,0-5.59.03-.28.16-.69.46-.78ZM7.2,15.57v3.47l2.86-1.68c.05-.25-.06-.16-.16-.21-.88-.54-1.8-1.06-2.69-1.58Z"/>
    <path class="cls-1" d="M27.52,12.75c7.94-.81,8.9,11.03,1.44,11.86-8.04.9-9.16-11.08-1.44-11.86ZM27.52,14.11c-5.66.76-4.94,9.52.96,9.15,6.19-.39,5.3-9.99-.96-9.15Z"/>
  </g>
  <path class="cls-1" d="M22.02,4.16c-1.35-1.76-4.18-.29-3.34,1.97.44,1.18,2.21,1.54,3.12.7.79-.73.87-1.83.22-2.68ZM20.53,6.48c-.64,0-1.17-.52-1.17-1.17s.52-1.17,1.17-1.17,1.17.52,1.17,1.17-.52,1.17-1.17,1.17Z"/>
</svg>