<?xml version="1.0" encoding="UTF-8"?>
<svg id="Layer_1" data-name="Layer 1" xmlns="http://www.w3.org/2000/svg" viewBox="0 0 42.64 39">
  <defs>
    <style>
      .cls-1 {
        fill: #00ec84;
      }
    </style>
  </defs>
  <path class="cls-1" d="M32.52,23.97h4.69c.09,0,.79.18.93.23.93.31,1.47,1.1,1.66,2.04-.18,2.7.28,5.79,0,8.44-.15,1.48-1.31,2.27-2.71,2.38-3.94.31-8.29-.24-12.27,0-1.17.01-2.61-1.16-2.61-2.37v-3.18h-5.15c-.66,0-.66-1.5,0-1.5h5.15l.11-4.16c-1.86-.77-1.42.56-1.98,1.65-.29.56-.92.93-1.54,1-.74.08-2.98.09-3.57-.25-1.06-.62-.98-2.35-1.46-2.59-.6-.29-1.77.72-2.93.04-.57-.33-2.06-2.78-2.15-3.41-.06-.46,0-.87.2-1.29.33-.68,1.57-1.31,1.12-2-.59-.91-1.48-.99-1.33-2.5.07-.64,1.49-3.04,2.04-3.4,1.29-.82,2.56.28,3.12-.13s.23-1.85,1.43-2.5c.73-.39,3.54-.44,4.25-.08,1.22.63,1.09,2.4,1.54,2.63.48.24,1.44-.31,2.02-.29.43,0,1.08.28,1.39.58.23.22,1.55,2.48,1.62,2.77.13.5.09,1.16-.12,1.62-.25.57-1.2,1.04-1.23,1.56-.03.58.67.9.99,1.34.87,1.22.31,2.25-.4,3.35h5.67v-15.28H4.27v20.43c0,.17.64.82.89.84,1.77.24,4.05-.24,5.76.03.87.14.87,1.35,0,1.49-1.02.16-4.46.12-5.54,0-1.15-.13-2.08-.84-2.47-1.93-.35-8.29-.05-16.66-.15-24.97.12-1.65,1.38-2.6,2.95-2.72h23.96c1.17-.06,2.84,1.33,2.84,2.49v19.62ZM31.01,7.18v-2.84c0-.25-.61-.9-.92-.93l-24.6-.06c-.35-.05-1.21.58-1.21.87v2.95h26.74ZM19.06,11.84c-.16-.19-2.82-.22-3.1-.09-.37.18-.37,1.74-1.21,2.37-1.41,1.05-2.58-.27-3.34.22-.12.07-1.31,2.26-1.32,2.4-.04.4.83.97,1.07,1.32.6.86.57,1.76-.05,2.6-.28.38-.99.77-.99,1.27,0,.23,1.28,2.42,1.41,2.47,1.34-.02,2.83-.81,3.7.7.32.55.37,1.86,1.03,1.98.37.07,2.41.05,2.65-.12.38-.26.43-1.72,1.05-2.31,1.17-1.09,2.7.06,3.41-.29.16-.08,1.38-2.22,1.39-2.44.02-.39-1-1.11-1.25-1.63-.32-.64-.38-1.29,0-1.93.19-.33,1.18-1.23,1.24-1.43.12-.43-1.12-2.25-1.45-2.68-1.06-.05-1.72.58-2.78.12s-1.16-1.56-1.45-2.54ZM24.62,25.5c-.52.1-.84.42-.9.95-.29,2.5.23,5.55,0,8.11.08.64.48.93,1.1.99,3.97.36,8.48-.29,12.51,0,.4,0,.68-.3.92-.58l.07-8.63c-.06-.49-.61-.89-1.1-.87l-12.59.03Z"/>
  <path class="cls-1" d="M13.97,30c1.02-.18,1.13,1.43.19,1.49s-1.05-1.33-.19-1.49Z"/>
  <path class="cls-1" d="M20.21,22.07c-3.32,3.37-8.86-1.21-5.79-5.16,3.24-4.17,9.58,1.32,5.79,5.16ZM17.1,16.93c-3.03.37-2.6,5.15.65,4.82,3.06-.31,2.62-5.22-.65-4.82Z"/>
  <path class="cls-1" d="M9.92,5.88c-.63.66-1.67-.21-1.14-.96.59-.83,1.77.29,1.14.96Z"/>
  <path class="cls-1" d="M6.44,4.65c.97-.17,1.19,1.3.16,1.43-.9.11-1.01-1.28-.16-1.43Z"/>
  <path class="cls-1" d="M32.2,27.24c.32-.26,2.37-.19,2.84-.07,3.03.75,2.8,6.44-.39,6.86-.42.05-2.02.07-2.31-.1s-.37-.56-.4-.87c-.11-1.18-.14-4.08,0-5.22.02-.18.14-.49.27-.6ZM33.44,32.65c.94-.19,1.74.06,2.14-1.04.6-1.63-.15-3.49-2.14-3.01v4.05Z"/>
  <path class="cls-1" d="M27.86,27c.3-.03.67.13.83.4.58,1.72,1.38,3.39,1.95,5.11.17.52.55,1.24-.14,1.54-1.03.46-.97-.8-1.28-1.17-.21-.26-1.97-.06-2.42-.1-.33.11-.39,1.89-1.5,1.23-.36-.21-.33-.54-.26-.91.17-.92,1.63-4.62,2.09-5.55.16-.32.35-.52.72-.55ZM28.58,31.26c-.13-.38-.26-.78-.41-1.15-.06-.14-.12-.46-.28-.47l-.58,1.62h1.27Z"/>
</svg>