<?xml version="1.0" encoding="UTF-8"?>
<svg id="Layer_1" data-name="Layer 1" xmlns="http://www.w3.org/2000/svg" viewBox="0 0 42.15 39">
  <defs>
    <style>
      .cls-1 {
        fill: #00ec84;
      }
    </style>
  </defs>
  <path class="cls-1" d="M29.36,18.77c.1.1,2.42-.08,2.78,0-.28-2.15,3.49-2.11,3.34,0,1.36-.13,2.96.25,3.12,1.83v15.13c-.09.69-.74,1.29-1.34,1.56l-33.65.06-.5-.16.06-35.33,24.86-.05.23.44v14.8c.06.37.88.32,1.08,1.14.04.16,0,.57.02.59ZM27.03,2.87H4.12v33.36h13.12c-.03-.21-.11-.39-.12-.61-.16-5,.13-10.02,0-15.02.07-.99,1.04-1.68,1.96-1.82.2-.03.9.02.94,0,.05-.05-.15-.84.45-1.28,1.02-.76,3-.18,2.95,1.28.35-.08,2.51.09,2.61,0,.06-.06-.11-.79.63-1.32.12-.09.37-.11.37-.12V2.87ZM22.14,18.44h-.89v2.34h.89v-2.34ZM28.14,18.44h-.89v2.34h.89v-2.34ZM34.26,20.77v-2.17c0-.21-.71-.18-.89-.17v2.34h.89ZM18.36,20.6c-.13.61.1,1.62,0,2.28h18.96s.17-.16.17-.17v-1.89c0-.77-1.43-.91-2-.83.2,1.74-.79,2.25-2.38,2-1-.16-.91-1.2-1.06-1.95-.1-.07-2.16-.09-2.4-.05-.48.09-.18.85-.36,1.31-.35.86-1.99.89-2.66.5-.87-.52-.49-1.71-.59-1.8s-2.31.07-2.67,0c.14,1.68-.58,2.16-2.17,2.01-.22-.02-.33-.02-.54-.13-.94-.48-.47-1.65-.73-1.83-.29-.21-1.47.1-1.56.56ZM37.48,24h-19.13v11.62c0,.35.97.59,1.27.62,5.29.45,11.22-.35,16.58,0,.44.07,1.27-.4,1.27-.84v-11.4Z"/>
  <path class="cls-1" d="M12.8,11.1v-1.45c-.48.31-.94,1.07-1.59.87-.2-.06-1.58-1.5-1.62-1.73-.03-.2.13-.55.32-.64.6-.29,1.22.6,1.61.94.97-.84,1.87-1.8,2.92-2.54,1.87.5-.28,1.59-.39,1.95-.21.7.1,2.36-.02,3.21-.05.35-.25.59-.61.61-2.01-.15-4.25.18-6.24,0-.54-.05-.76-.15-.83-.73-.21-1.82.16-4.03,0-5.89.07-.43.3-.57.71-.62,1.96-.23,4.34.18,6.35,0,.9.12.65,1.23.22,1.23h-6.06v4.78h5.23Z"/>
  <path class="cls-1" d="M12.8,32.78v-1.45c-.48.31-.94,1.07-1.59.87-.2-.06-1.58-1.5-1.62-1.73-.03-.2.13-.55.32-.64.74-.37,1.31.94,1.61.92.99-.81,1.87-1.79,2.91-2.52,1.87.5-.28,1.59-.39,1.95-.21.7.1,2.36-.02,3.21-.05.35-.25.59-.61.61-2.01-.15-4.25.18-6.24,0-.54-.05-.76-.15-.83-.73-.21-1.82.16-4.03,0-5.89.07-.43.3-.57.71-.62,1.96-.23,4.34.18,6.35,0,.9.12.65,1.23.22,1.23h-6.06v4.78h5.23Z"/>
  <path class="cls-1" d="M7.57,17.21v4.67h5.23v-1.45c-.52.3-.86,1.17-1.56.96-.27-.08-1.6-1.44-1.65-1.7-.11-.6.37-.84.91-.67.35.11.69.93,1.08.82.36-.1,1.7-1.57,2.11-1.91.33-.26.89-.78,1.31-.36.69.69-.82,1.38-.95,1.83-.22.72.1,2.35-.02,3.21-.05.37-.14.45-.5.5-1.95.26-4.45-.21-6.46,0-.38.03-.7-.23-.72-.61.19-1.83-.24-4.13,0-5.91.02-.18.25-.61.4-.61h7.01c.38,0,.45,1.22-.33,1.22h-5.84Z"/>
  <path class="cls-1" d="M17.55,8.12l7.43-.03c.72.03.78,1.1.1,1.23h-7.34c-.76.05-.89-1.05-.2-1.2Z"/>
  <path class="cls-1" d="M17.55,5.12l7.32-.03c.81.04.97.94.22,1.22h-7.34c-.8,0-.83-.87-.2-1.2Z"/>
  <path class="cls-1" d="M26.11,25.69c.3-.09,2.8-.08,3.21-.03.43.06.56.32.61.73.05.47.06,2.47-.05,2.84-.11.35-.44.51-.78.55-.47.05-2.46.06-2.84-.05-.29-.09-.41-.27-.44-.56-.05-.36-.03-3.1.06-3.29.05-.09.15-.17.25-.2ZM28.59,26.89h-1.56v1.56h1.56v-1.56Z"/>
  <path class="cls-1" d="M26.33,30.47c.45-.1,2.26-.08,2.76-.03s.77.32.83.83c.05.47.06,2.46-.05,2.84-.09.29-.27.41-.56.44-.38.05-2.94.04-3.17-.06-.21-.09-.31-.33-.34-.55-.06-.48-.08-2.57,0-3.01.05-.25.28-.43.52-.48ZM28.59,31.78h-1.56v1.56h1.56v-1.56Z"/>
  <path class="cls-1" d="M31.67,30.47c.4-.09,2.43-.09,2.86-.02.38.06.69.33.73.71.07.55.06,2.12,0,2.68-.05.42-.18.67-.61.73-.38.05-2.94.04-3.17-.06-.21-.09-.31-.33-.34-.55-.07-.53-.07-2.37.01-2.89.05-.31.2-.52.52-.59ZM34.04,31.78h-1.67v1.56h1.67v-1.56Z"/>
  <path class="cls-1" d="M20.88,25.69c.3-.09,2.79-.08,3.21-.03s.45.24.5.62c.05.48.07,2.7-.05,3.07-.1.32-.36.4-.67.44-.57.07-1.99.07-2.56,0-.6-.07-.77-.39-.83-.95s-.15-2.98.41-3.15ZM23.36,26.89h-1.67v1.56h1.67v-1.56Z"/>
  <path class="cls-1" d="M31.28,29.53c-.2-.21-.19-2.7-.15-3.15.04-.42.15-.66.61-.72.56-.07,2.35-.07,2.9,0,.43.06.56.31.61.73.06.56.08,2.13,0,2.68s-.48.68-.95.72c-.55.05-2.71.09-3.03-.26ZM34.04,26.89h-1.67v1.56h1.67v-1.56Z"/>
  <path class="cls-1" d="M24.45,34.42c-.12.12-.41.13-.58.14-.44.04-2.93.05-3.13-.11-.37-.28-.31-2.33-.27-2.85.05-.63.1-1.08.84-1.17.45-.05,2.49-.06,2.84.05.38.12.41.43.44.78.04.44.05,2.95-.14,3.15ZM23.36,31.78h-1.67v1.56h1.67v-1.56Z"/>
</svg>