<?xml version="1.0" encoding="UTF-8"?>
<svg id="Layer_1" data-name="Layer 1" xmlns="http://www.w3.org/2000/svg" viewBox="0 0 39.09 39">
  <defs>
    <style>
      .cls-1 {
        fill: #00ec84;
      }
    </style>
  </defs>
  <path class="cls-1" d="M33.78,29.83c-.1,1.28.37,3.53-.78,4.42-.18.14-.89.48-1.07.48h-5.32v2.93s-.18.21-.24.24h-9.8c-.05-.03-.24-.32-.24-.36v-2.81H3.36c-.64,0-1.48-.69-1.71-1.28-.34-8.44-.05-16.96-.14-25.43.04-.52.42-1.14.85-1.42.07-.04.61-.31.65-.31h2.33c.13-1.69-.6-4.38,1.62-4.89l29.33.05c.72.29,1.29,1,1.32,1.79v24.63c.07.89-1.02,1.97-1.86,1.97h-1.97ZM36.52,7.61V3.13c0-.27-.68-.77-1.01-.66H7.42c-.48-.13-1.01.52-1.01.9v4.24h3.05s.18-.17.18-.18v-1.91c0-.24.89-.51,1.13-.54.93-.1,3.63-.12,4.51.03,1.13.19,1.98,1.94,2.9,2.6h18.34ZM36.52,8.68h-18.7c-.28,0-2.22-2.14-2.51-2.51h-4.72v1.97c0,.05-.57.54-.66.54h-3.53v19.06c0,.19.42.9.66.9h9.26c-.68-.58-.82-.88-.46-1.72,1.25-2.93,3.56-5.9,4.9-8.84.48-.67,1.11-.55,1.52.12,1.64,3.12,3.55,6.13,5.05,9.3.01.15-.02.28-.06.42-.13.39-.47.44-.66.71h9.38c.05,0,.54-.57.54-.66V8.68ZM5.33,7.37h-2.09c-.27,0-.77.68-.66,1.01v24.27c-.1.38.48,1.01.78,1.01h12.97v-1.85s.29-.54.36-.6c.39-.42.92-.28,1.44-.3l-.13-1.06-10.67-.03c-.73-.1-1.5-.48-1.77-1.21-.04-.11-.21-.8-.21-.86V7.37ZM20.99,22.31c.09-.14-.07-1.81,0-2.15l-4.18,7.35c1.02.36,2.06,1.22,2.33,2.33.07.29.01.82.11.97.18.27,3.88.03,4.49.11-.03-1.62.94-2.79,2.39-3.41l-4.06-7.34v2.15c0,.05.59.26.82.67.58,1.04-.2,2.33-1.36,2.32-1.55,0-2.21-1.83-1.01-2.81.16-.13.46-.16.47-.18ZM32.7,29.83h-7.59c-.14,0-.33.85-.25.96.16.22,1.74-.11,1.74.89v1.97h5.2c.31,0,.9-.7.9-1.02v-2.81ZM25.53,31.99h-8.01v4.9h8.01v-4.9Z"/>
  <path class="cls-1" d="M12.68,14.9c-.1.03-.36.64-.6.84-1.09.91-2.97.38-3.26-1.04-.46-2.21,2.35-3.34,3.56-1.65.22.3.19.71.54.78h6.33c.11-.02,0-1.34.67-1.61.32-.13,2.87-.11,3.19.03.72.31.41,1.56.58,1.58h6.55c.64-2.48,4.41-1.85,3.99.75-.25,1.52-2.12,2.12-3.26,1.16-.2-.17-.54-.84-.6-.84h-4.24c.38.4.94.61,1.37.96,1.19.95,2.3,2.39,2.91,3.78.13.3.44,1.53.51,1.58.24.21,1.62-.47,1.78,1.03.08.68.15,2.67-.43,3.04-.36.22-2.94.21-3.32,0-.11-.06-.24-.19-.3-.3-.19-.35-.21-2.75-.08-3.16.18-.57.78-.58,1.26-.65-.7-2.1-2.06-3.98-3.98-5.1-.33-.19-1.97-1.02-2.22-.8-.07.06-.08.82-.72,1.01-.55.17-2.81.14-3.23-.25-.49-.47.14-.95-.84-.71-2.49.61-5.03,3.44-5.61,5.92.54-.07,1.16.1,1.29.68.11.48.09,2.79-.16,3.14-.37.51-2.35.43-2.99.37-.52-.05-.88-.28-.98-.81-.1-.58-.11-2.52.17-2.99.39-.64,1.17-.24,1.48-.45.09-.06.61-1.66.77-1.98.45-.92,1.34-2.12,2.09-2.81.62-.57,1.39-.95,2.03-1.49h-4.24ZM22.54,13.22h-2.03v2.03h2.03v-2.03ZM10.44,13.37c-.91.27-.62,1.9.42,1.75,1.28-.19.84-2.13-.42-1.75ZM32.91,14.87c.66-.7-.35-2.14-1.28-1.34-.88.75.46,2.21,1.28,1.34ZM13.46,22.31h-2.03v2.03h2.03v-2.03ZM31.62,24.34v-1.85s-.17-.18-.18-.18h-1.97l.12,2.03h2.03Z"/>
  <path class="cls-1" d="M27.17,3.57c1.78-.35,2.38,2.4.76,2.79-2.19.53-2.56-2.44-.76-2.79Z"/>
  <path class="cls-1" d="M30.52,3.57c2-.39,2.42,3.14-.02,2.83-1.54-.19-1.53-2.53.02-2.83Z"/>
  <path class="cls-1" d="M33.87,3.57c2.1-.29,2.21,3.08-.02,2.84-1.56-.17-1.59-2.62.02-2.84Z"/>
</svg>