<?xml version="1.0" encoding="UTF-8"?>
<svg id="Layer_1" data-name="Layer 1" xmlns="http://www.w3.org/2000/svg" viewBox="0 0 48.97 39">
  <defs>
    <style>
      .cls-1 {
        fill: #00ec84;
      }
    </style>
  </defs>
  <path class="cls-1" d="M41.72,32.98v2.41h3.84c.66,0,1.12,1.35-.14,1.51l-42.42-.09c-.83-.37-.32-1.43.22-1.43h3.84v-2.41c-.59-.23-1.21-.09-1.82-.22-1.27-.27-2.16-1.63-2.26-2.87l.02-25.31c.33-1.17,1.07-2.2,2.28-2.54,12.75-.15,25.59-.23,38.33.04,1.24.4,2,1.54,2.18,2.79v25.16c-.18,1.19-1.02,2.46-2.25,2.72-.6.13-1.23,0-1.82.22ZM41.72,31.48c1.18.12,2.41-.25,2.57-1.58V4.88c-.07-.75-.8-1.46-1.58-1.44l-37.16.07c-.51.28-1.02.74-1.05,1.36v25.02c.16,1.33,1.38,1.7,2.56,1.58v-4.75c0-.1.48-.49.68-.52.86-.16,4.46-.11,5.43-.01.28.03.97.25.97.54v4.75h2.11v-13.49c0-.06.18-.34.25-.39.36-.23,4.93-.2,5.7-.15.34.02,1.12.03,1.12.53v13.49h2.11v-6.71c0-.1.48-.49.68-.52.86-.16,4.46-.11,5.43-.01.28.03.97.25.97.54v6.71h2.11v-15.14c0-.19.47-.36.67-.38.6-.08,5.83-.05,6.11.09.07.03.3.27.3.3v15.14ZM40.21,17.31h-4.07v18.08h4.07v-18.08ZM21.83,18.97h-4.07v16.42h4.07v-16.42ZM31.02,25.75h-4.07v9.64h4.07v-9.64ZM12.64,27.71h-4.07v7.68h4.07v-7.68ZM16.25,32.83c-.33.04-2.11-.15-2.11.23v2.34h2.11v-2.56ZM25.44,32.98c-.3-.24-2.11-.14-2.11,0v2.41h2.11v-2.41ZM34.64,35.4v-2.34c0-.38-1.78-.18-2.11-.23v2.56h2.11Z"/>
  <path class="cls-1" d="M25.84,15.27c.32.3,1.43,1.6,1.71,1.67.24.06.44-.2.69-.21.76-.05,1.47-.07,2.18.22l5.2-5.06c-.39-1.32-.44-2.69.68-3.68,2.36-2.09,6.06,1.02,4.21,3.76-.74,1.09-1.72,1.2-2.94,1.13-.31-.02-.69-.3-.83-.24-.11.05-1.48,1.35-1.73,1.58-.44.41-3.37,3.25-3.47,3.47-.11.26.23,1.01.24,1.43.09,3.86-6.03,4.09-5.58-.6.03-.3.36-.56.23-.83-.81-.52-4.91-5.06-5.28-5.09-.05,0-.54.24-.9.27s-.83.01-1.21-.01c-.24-.02-.5-.26-.61-.25-.38.03-4.61,4.51-5.28,5.09-.17.37.18.68.24,1.12.32,2.71-3.01,4.31-4.83,2.41-2.29-2.39.52-5.91,3.47-4.51l5.13-4.98c.2-.31-.16-.97-.17-1.51-.07-2.83,3.38-3.96,5.06-1.74,1.08,1.42.11,2.73.29,3.16s2.93,2.86,3.49,3.38ZM20.73,9.38c-1.27-1.16-3.23.75-1.87,2.01,1.28,1.19,3.07-.91,1.87-2.01ZM39.11,9.38c-1.36-1.24-3.11.88-1.86,2.01s3.11-.88,1.86-2.01ZM11.53,20.43c1.24-1.14-.58-3.18-1.86-2.01-1.24,1.13.47,3.28,1.86,2.01ZM29.93,18.41c-1.19-1.1-3.03.68-1.99,1.91,1.24,1.48,3.29-.71,1.99-1.91Z"/>
</svg>