<?xml version="1.0" encoding="UTF-8"?>
<svg id="Layer_1" data-name="Layer 1" xmlns="http://www.w3.org/2000/svg" viewBox="0 0 41.89 39">
  <defs>
    <style>
      .cls-1 {
        fill: #00ec84;
      }
    </style>
  </defs>
  <path class="cls-1" d="M8.91,17.74c.22.05.73.5.68.79-.24,2.63.3,5.76,0,8.32-.07.63-.32.74-.91.8-2.05.19-4.18-.14-5.48-1.87-2.01-2.67-.99-6.15,1.87-7.63C4.71,7.55,14.85-.29,25.11,2.4c6.88,1.81,12.11,8.56,11.73,15.74,3.22,1.54,4.01,6.08,1.14,8.38-.22.18-1.09.6-1.12.65-.11.18.03,2.41-.05,2.95-.35,2.4-2.99,4.97-5.41,5.23-2.24.24-4.87-.18-7.15,0-.02.95-.73,1.61-1.65,1.71s-3.31.1-4.25-.03c-1.1-.16-1.47-.81-1.56-1.86-.1-1.2-.1-2.46,1.1-3.07,1.5.08,3.76-.31,5.17-.03.74.15,1.14.89,1.26,1.57,2.62-.3,6.46.7,8.72-.81.84-.56,2.09-2.27,2.09-3.29v-1.89h-2.26c-.31,0-.52-.51-.55-.79-.31-2.56.24-5.7,0-8.32-.09-.26.53-.79.68-.79h2.14c.03-4.54-2.28-8.87-5.95-11.47-9.46-6.68-22.31.04-22.41,11.47.62.09,1.57-.12,2.14,0ZM7.87,19.46c-5.28-.28-5.23,6.85,0,6.48v-6.48ZM34.03,25.93c5.23.37,5.28-6.76,0-6.48v6.48ZM22.54,33.76h-4.03v1.59h4.03v-1.59Z"/>
  <path class="cls-1" d="M19.7,10.08c6.79-.8,12.03,5.59,9.74,12.06-1.44,4.09-5.42,6.24-9.65,5.88-.75-.06-2.25-.75-2.66-.71-.87.08-2.55,1.28-3.51,1.5-.37.09-.98.09-1.16-.31-.43-.92.77-3.74.67-4.82-.04-.41-.78-1.79-.94-2.49-1.17-5.11,2.21-10.5,7.51-11.12ZM14.47,26.42c.15.16,2.2-.95,2.63-.98.61-.04,2.11.76,3.07.85,7.68.72,11.08-9.35,4.68-13.36-5.82-3.64-12.97,1.97-10.78,8.46.19.55.84,1.49.89,1.93.06.53-.64,2.94-.49,3.1Z"/>
  <path class="cls-1" d="M16.76,16.55c1.26-.22,6.95-.2,8.27-.02,1.21.17,1.04,1.59.14,1.71h-8.56c-.73-.15-.92-1.5.15-1.69Z"/>
  <path class="cls-1" d="M16.64,19.85c.49-.11,4.11-.11,4.59,0,.81.19.81,1.53-.1,1.68-.63.1-3.92.11-4.49-.02-.83-.18-.83-1.48,0-1.66Z"/>
</svg>