<?xml version="1.0" encoding="UTF-8"?>
<svg id="Layer_1" data-name="Layer 1" xmlns="http://www.w3.org/2000/svg" viewBox="0 0 42.64 39">
  <defs>
    <style>
      .cls-1 {
        fill: #00ec84;
      }
    </style>
  </defs>
  <g>
    <path class="cls-1" d="M9.88,21.24c.44-.41,1.24-.05,1.18.62-.03.32-1.25,3.17-1.45,3.27-.57.28-1.04-.24-.96-.84.03-.2,1.12-2.95,1.23-3.06Z"/>
    <path class="cls-1" d="M32.82,24.92c-.12-.12-1.3-2.84-1.34-3.08-.1-.76.7-1.14,1.17-.56.14.17,1.33,2.96,1.34,3.14.03.56-.79.88-1.18.5Z"/>
  </g>
  <path class="cls-1" d="M40.04,17.65c-.23-1.91-3.39-1.95-4.81-2.37,0-.78-.87-1.84-.97-2.48-.08-.52,1.73-2.57,1.88-3.5.19-1.09-.07-1.55-.75-2.33-.4-.45-1.79-1.85-2.25-2.1-1.67-.91-3.5,1.05-4.91,1.72l-2.67-.97c-.42-1.42-.46-4.58-2.37-4.81-.79-.09-2.96-.09-3.75,0-1.91.23-1.95,3.39-2.37,4.81-.78,0-1.84.87-2.48.97-.48.07-2.45-1.58-3.23-1.8-.47-.13-1.27-.22-1.73-.02-.34.15-2.07,1.84-2.39,2.2-1.94,2.2.12,3.64,1.13,5.64l-.97,2.67c-1.3.37-4.44.51-4.78,2.16-.13.64-.11,3.26-.03,3.96.18,1.46,2.06,1.85,3.26,1.99l-1.66,4.2c-.15,1,.51,1.41,1.3,1.78.66.31,3.51,1.46,4.08,1.48,1.28.05,1.47-1.36,1.67-1.41.04,0,.75.2.78.23.05.06-.23.9-.07,1.45.22.73,1.05.93,1.21,1.2.21.35-.05,1.07.54,1.72.39.43,1.21.51,1.31.6.06.05.22.98.62,1.37.67.66,1.43.4,1.68.55.04.03.21.66.38.89.51.71,1.37.93,2.21.76.26-.05.7-.42.87-.41.12,0,.48.36.75.41.6.13,1.21.06,1.72-.28.2-.13.38-.46.58-.52.29-.08.71.12,1.15.07.93-.1,1.18-.84,1.51-.92.59-.14,1.11.45,2.03-.26.79-.61.55-1.28.85-1.69.1-.14.88-.29,1.21-.61.56-.53.64-1.31.46-2.03-.14-.56-.97-1.43-.84-1.84.14-.43.99-.73,1.4-.84.15,1.01.83,1.61,1.87,1.44.45-.07,3.55-1.45,4.06-1.74.63-.36,1.08-.9.93-1.67-.1-.53-1.82-3.81-1.66-3.95,1.07-.1,2.98-.53,3.23-1.78.13-.64.11-3.26.03-3.96ZM9.73,29.37c-.16.11-.33.03-.49,0-1.06-.2-2.48-1.16-3.6-1.41l3.49-9.16,4.22,1.57-3.62,9ZM19.72,18.88c.67.29,1.42.35,2.15.28,1.62-.15,1.73-1.48,3.55-.42,1.17.68,1.79,1.81,1.56,3.17-1.19.36-2.2-.7-3.43-.71-.86,0-1.7.58-2.18.61-.34.02-.87-.36-1.23-.45-1.83-.45-2.78.65-4.5.7-.37-1.61.92-3.42,2.5-3.72.82-.15.95.27,1.57.54ZM20.93,12.79c3.66-.47,3.93,5.05.43,5.12-3.18.06-3.49-4.72-.43-5.12ZM24.82,17.1c1.23-2.73-.61-5.8-3.69-5.68-2.87.11-4.5,3.14-3.32,5.68-1.48.29-2.61,1.37-3.32,2.66-.57-.74-1.55-.88-2.36-1.27,1.56-10.8,16.71-10.83,18.36-.06-.58.23-1.3.46-1.84.76-.28.16-.4.47-.69.45-.46-1.29-1.84-2.26-3.14-2.54ZM13.02,28.56l-1.36-.35,2.25-5.3c.86.25,1.61.56,2.52.47,1.29-.13,2.05-1.12,3.47-.69.95.29,2.88,2.2,3.87,2.89.56.4,2.36,1.05.78,1.57-1.48.48-2.34-.82-3.59-1.17-3.2-.9-5.33,1.19-7.94,2.58ZM19.52,37.16c-.37.19-.82.05-1.02-.31-.19-.37-.05-.82.31-1.02l.75-.4.7,1.33-.75.4ZM21.67,36.74c-.37-.3-1.86-2.68-.99-2.94.24-.07.5-.06.71.09.21.15,1.41,2.23,1.38,2.48-.05.5-.68.71-1.1.38ZM24.1,35.76c-.16-.2-1.26-2.07-1.28-2.23-.1-.62.65-.97,1.13-.57.11.09,1.31,2.17,1.34,2.35.17.91-.6,1.18-1.18.45ZM26.75,35.04c-.22-.26-1.58-2.58-1.64-2.84-.13-.6.64-.97,1.12-.57.13.11,1.68,2.79,1.71,2.95.11.67-.67,1.05-1.19.45ZM28.59,33.01c-.14-.63-1.42-1.97-1.18-2.5.17-.38.76-.51,1.09-.24.1.08,1.22,2.01,1.25,2.14.17.8-.56.93-1.16.61ZM30.86,28.15c-.17.12-.54.15-.79.3-.22.13-.79.69-.84.7-.1,0-.47-.28-.73-.32-.7-.11-1.38,0-1.87.53-.19.2-.38.67-.48.73-.31.19-.92-.08-1.56.37-.38.27-.61.89-.73.96-.19.12-.81.04-1.24.21-.44.17-.84.8-.9.82-.86.21-1.51-.36-2.31.68-.32.42-.27.87-.41,1.1-.05.08-1.53.94-1.63.97-.68.18-1.12-.32-.82-.94.24-.48,3.65-2.11,4.28-2.6.61-.56.06-1.47-.68-1.17l-4.72,2.78c-.71.18-1.09-.4-.76-1.01l3.96-2.38c.43-.77-.12-1.29-.94-1-.94.34-2.83,2-3.69,2.12-.65.09-1-.38-.72-.97.11-.23,3.86-2.36,4.33-2.56,3.42-1.44,4.29,1.74,7.18,1.03,1.13-.28,1.99-1.27,1.68-2.48-.15-.59-2.13-1.65-2.74-2.09-.14-.1-1.39-1.07-1.34-1.14,1.49-.74,2.72.61,4.17.61.73,0,1.57-.35,2.23-.61,0,.66,2.35,5.16,2.06,5.37ZM37.02,27.55c0,.16-.09.21-.2.29-.83.64-2.68.94-3.61,1.59-.27,0-.49-.61-.6-.85-1.02-2.26-2.12-4.82-3.02-7.12-.13-.33-.25-.67-.31-1.01l4.11-1.76,3.63,8.87ZM38.69,21.26c-.34.67-1.85.74-2.52.92,0-.16-.03-.3-.1-.44-.43-.97-1.11-3.02-1.66-3.77-.83-1.14-1.67-.44-2.71-.13-1.08-7.11-8.92-10.98-15.32-7.65-2.87,1.49-5.1,4.53-5.45,7.77-.88-.13-1.38-.78-2.33-.34-.85.4-1.8,3.61-2.14,4.56-.67-.19-2.17-.25-2.52-.92-.24-.46-.23-3.11.05-3.54.57-.87,4.06-.84,4.51-1.53.18-.28.37-1.22.54-1.64.28-.68.97-1.57.74-2.27-.33-1-2.48-3-1.87-4.06.07-.13,1.98-2.04,2.11-2.11,1.22-.7,3.47,2.16,4.69,1.91.39-.08,1.26-.63,1.72-.82.4-.16,1.48-.36,1.69-.6.49-1.08.51-2.37.87-3.47.2-.61.32-1.03,1.06-1.12.57-.07,2.67-.07,3.08.19.89.58.85,4.06,1.53,4.51.29.19,1.14.32,1.56.49.69.29,1.64,1.01,2.35.78,1-.33,3-2.48,4.06-1.87.13.08,2.1,2.04,2.16,2.18.52,1.14-1.94,3.28-2,4.28-.03.46.61,1.47.82,1.97.23.57.35,1.66.89,1.89.93.4,3.67.52,4.16,1.27.28.43.29,3.08.05,3.54Z"/>
</svg>